<svg width="1440" height="1008" viewBox="0 0 1440 1008" fill="none" xmlns="http://www.w3.org/2000/svg">
<path d="M846.005 539.66C787.638 550.621 728.871 559.436 669.817 566.248C731.188 559.436 790.127 550.307 846.005 539.66Z" fill="black" fill-opacity="0.1"/>
<path d="M-2 268.999C24.5797 256.778 49.8719 242.01 74.5347 226.441C103.403 208.153 131.471 188.634 159.681 169.43C216.017 130.935 273.382 93.529 335.268 64.7371C366.139 50.3125 398.012 38.0059 430.714 28.4181C463.388 18.8304 496.892 11.9901 530.739 7.98333C598.461 -0.0589331 667.243 3.63307 734.307 15.768C801.658 27.1302 865.975 51.0853 932.467 66.9695C998.731 83.6264 1065.82 97.0778 1133.52 106.465C1201.21 115.824 1269.51 121.147 1337.89 120.833C1371.99 120.632 1406.07 119.058 1440 115.566V112.962C1406.07 116.454 1371.96 118.028 1337.86 118.2C1269.65 118.514 1201.44 113.191 1133.86 103.832C1066.28 94.4448 999.274 80.9933 933.097 64.365C899.994 56.0366 867.12 46.9067 834.446 37.09C801.686 27.3305 768.411 19.2024 734.765 13.1063C667.5 0.942772 598.433 -2.77785 530.396 5.26441C496.406 9.24261 462.759 16.1401 429.913 25.7564C397.068 35.3728 365.052 47.7367 334.066 62.1899C271.98 91.0962 214.443 128.589 158.108 167.111C129.869 186.344 101.83 205.806 73.0183 224.065C48.7847 239.349 23.9789 253.83 -2 265.851V268.999Z" fill="black" fill-opacity="0.1"/>
<path d="M-2 276.898C72.675 242.898 138.481 191.038 207.376 147.163C280.02 100.913 356.898 62.3616 439.641 40.2955C531.111 16.598 638.116 10.7309 767.668 39.2938C767.725 39.3224 767.782 39.3224 767.868 39.351C771.272 40.0951 774.734 40.8965 778.168 41.7265C781.515 42.5278 784.863 43.3006 788.21 44.1306C790.127 44.5885 792.044 45.075 793.961 45.5616C795.764 46.0195 797.566 46.4774 799.397 46.9067C809.411 49.4825 819.568 52.2301 829.839 55.2352C913.927 79.5051 990.834 96.3337 1059.99 107.839C1063.48 108.44 1067 109.012 1070.49 109.585C1071.95 109.814 1073.38 110.043 1074.81 110.272C1117.47 117.083 1160.41 122.292 1203.44 125.641C1204.02 125.698 1204.62 125.727 1205.19 125.784C1210.08 126.156 1214.97 126.528 1219.87 126.871C1226.1 127.301 1232.23 127.673 1238.23 127.988C1239.52 128.045 1240.81 128.131 1242.1 128.188C1286.07 130.535 1324.35 130.563 1356.46 129.419C1363.92 129.161 1371.13 128.818 1378.17 128.417C1379.2 128.36 1380.26 128.302 1381.29 128.217C1384.58 128.016 1387.81 127.816 1390.99 127.616C1407.33 126.557 1423.66 125.068 1439.94 123.151V120.289C1430.7 121.376 1420.83 122.407 1410.33 123.323C1409.19 123.437 1408.04 123.523 1406.9 123.609C1391.33 124.897 1374.42 125.956 1356.2 126.585C1247.08 130.506 1067.31 120.804 830.641 52.5163C678.601 8.44125 542.984 5.52199 416.008 43.6154C391.603 50.9422 368.342 59.5854 345.94 69.116C343.393 70.1749 340.847 71.2625 338.329 72.35C337.843 72.579 337.328 72.7793 336.813 73.0083C319.818 80.3637 303.052 88.3773 286.543 96.992C230.494 126.328 178.136 161.931 125.663 197.077C84.5486 224.609 42.9767 252.371 -2 273.292V276.898Z" fill="black" fill-opacity="0.1"/>
<path d="M1440 127.673C1431.79 128.76 1423.06 129.819 1413.82 130.792C1409.76 131.222 1405.7 131.594 1401.63 131.994C1386.47 133.397 1370.07 134.599 1352.48 135.429C1264.96 139.579 1132.52 135.572 962.538 100.684C919.478 91.6973 876.704 81.3082 834.16 69.9746C830.955 69.116 827.78 68.2574 824.546 67.3701C762.832 50.1122 706.011 40.0951 653.338 35.8594C653.109 35.8307 652.851 35.8307 652.622 35.8021C648.874 35.5159 645.155 35.2297 641.435 35.0008C639.862 34.8863 638.288 34.8004 636.714 34.7146C634.54 34.6001 632.337 34.457 630.163 34.3711C619.519 33.8273 608.847 33.4553 598.204 33.3408C572.139 33.0832 546.275 34.4856 520.696 37.3762C519.38 37.5193 518.093 37.6624 516.805 37.8055C515.976 37.8914 515.174 38.0059 514.345 38.0917C448.425 45.9623 390.058 63.1344 337.271 85.2005C318.015 93.1283 299.018 101.915 280.334 111.474C226.059 139.235 175.16 172.921 124.289 206.407C83.5186 233.253 42.4044 260.499 -2 281.105V284.454C71.1014 251.169 135.877 200.969 203.8 158.726C281.736 110.243 364.508 71.1766 453.661 51.0567C555.03 28.876 675.368 28.4181 823.803 69.946C877.076 84.6853 927.461 96.5055 974.898 105.921C980.248 107.009 985.598 108.039 990.977 109.041C991.092 109.07 991.206 109.07 991.292 109.098C1085.25 127.1 1180.84 138.148 1276.54 139.293C1304.81 139.665 1330.31 139.149 1352.76 138.091C1353.25 138.062 1353.74 138.033 1354.22 138.005C1382.29 136.803 1411.25 135.028 1440 131.537V127.673Z" fill="black" fill-opacity="0.1"/>
<path d="M986.171 119.43C926.745 108.669 867.864 95.0744 809.383 79.734C782.259 72.6076 754.793 66.5974 727.126 61.8751C438.554 11.8757 266.944 122.807 126.55 213.562C82.0594 242.325 39.7722 269.657 -2 289.005V291.924C21.0319 281.334 44.1783 268.341 67.7253 254.002C68.1831 253.716 68.6408 253.43 69.0986 253.172C70.7294 252.17 72.3603 251.197 73.9911 250.167C89.2694 240.837 104.376 231.135 119.426 221.318C122.258 219.486 125.119 217.626 127.98 215.794C185.632 178.502 248.576 137.833 322.765 106.351C323.823 105.921 324.853 105.464 325.912 105.034C327.199 104.49 328.458 103.975 329.746 103.432C347.685 96.0761 365.853 89.4076 384.279 83.4833C386.453 82.7964 388.628 82.0809 390.831 81.4226C391.145 81.3368 391.46 81.2223 391.775 81.1364C503.873 46.7922 640.663 37.0042 817.766 84.7426C865.832 97.5071 911.581 107.868 954.956 116.311C957.931 116.912 960.907 117.513 963.911 118.085C1045.94 133.769 1129.31 144.215 1212.91 147.621C1265.99 149.911 1311.56 149.081 1349.02 146.877C1363.87 145.99 1377.83 144.902 1390.96 143.614C1407.24 142.269 1423.63 140.552 1440 138.319V134.971C1414.51 138.72 1384.04 142.126 1348.7 144.215C1265.7 149.109 1142.67 147.249 986.171 119.43Z" fill="black" fill-opacity="0.1"/>
<path d="M967.745 130.535C915.787 121.033 864.344 109.356 812.844 97.1065C812.701 97.0778 812.558 97.0206 812.387 96.992C465.305 7.89747 274.011 128.875 120.313 226.097C77.9108 252.915 37.6264 278.386 -2 296.732V299.565C17.9133 290.407 37.9983 279.445 58.4267 267.425C84.4628 252.314 109.869 236 135.248 219.744C186.347 187.518 241.852 153.46 305.941 125.87C336.527 112.848 367.77 101.714 399.729 92.8134C400.101 92.699 400.501 92.6131 400.873 92.4986C402.647 92.0121 404.421 91.5255 406.223 91.0676C506.677 64.5654 627.015 57.6393 777.853 91.3824C786.236 93.3 794.591 95.3034 802.945 97.3354C805.863 98.0509 808.782 98.7664 811.757 99.5392C1050.12 160.729 1233.37 164.049 1345.18 156.064C1369.79 154.318 1392.08 151.943 1412.05 149.281C1421.37 148.165 1430.7 146.934 1440.03 145.503V142.527C1413.68 146.848 1381.89 150.855 1344.87 153.488C1258.95 159.584 1130.74 158.983 967.745 130.535Z" fill="black" fill-opacity="0.1"/>
<path d="M1391.45 157.066C1375.91 159.04 1359.17 160.844 1341.18 162.332C1264.24 168.685 1153.75 170.116 1015.18 151.599C939.964 141.267 865.889 125.555 791.844 108.211C754.192 99.3961 716.024 92.5845 677.6 88.1198C408.255 56.3228 247.06 156.093 114.161 238.404C73.8194 263.39 35.4806 287.116 -2 304.431V307.207C-1.34194 306.892 -0.655278 306.606 0.00277778 306.291C0.174444 306.205 0.374722 306.119 0.546389 306.034C71.0442 273.636 134.561 226.699 201.997 188.72C298.131 134.599 401.474 97.5358 511.798 87.5187C583.612 80.9933 656.027 85.9733 727.011 97.9079C771.644 105.406 815.305 117.141 859.481 126.843C900.28 135.801 941.366 143.357 982.651 149.682C1088.28 165.909 1195.92 173.064 1302.81 167.398C1305.84 167.254 1308.85 167.083 1311.82 166.911C1313.97 166.768 1316.14 166.653 1318.32 166.539C1326.3 166.024 1334.02 165.48 1341.41 164.85C1349.16 164.221 1356.66 163.505 1363.95 162.761C1364.01 162.761 1364.07 162.761 1364.12 162.732C1389.02 160.214 1414.59 157.295 1440.03 153.059V149.653C1427.9 151.8 1414.59 153.917 1400.14 155.892C1397.23 156.322 1394.34 156.694 1391.45 157.066Z" fill="black" fill-opacity="0.1"/>
<path d="M929.435 152.601C890.495 145.704 851.784 137.718 812.988 129.533C808.724 128.56 804.519 127.616 800.227 126.614C448.883 44.0447 259.82 158.611 107.895 250.682C69.6994 273.836 33.3347 295.873 -2 312.158V314.849C11.5903 308.609 25.3236 301.54 39.2572 293.87C78.3972 272.863 116.021 248.679 154.159 225.783C188.407 205.634 224.886 185.4 264.856 167.283C318.731 143.242 374.608 124.897 432.345 113.506C532.112 94.5307 651.392 94.1872 799.626 129.018C1038.84 185.257 1224.22 184.341 1337.57 173.694C1376.34 170.059 1409.53 165.051 1436.88 159.899C1437.91 159.727 1438.94 159.556 1439.94 159.355V156.808C1412.02 162.189 1377.71 167.455 1337.34 171.233C1245.53 179.876 1106.34 182.108 929.435 152.601Z" fill="black" fill-opacity="0.1"/>
<path d="M1440 163.877C1411.27 169.802 1375.62 175.726 1333.48 180.162C1241.84 189.779 1103.5 193.556 928.376 166.797C889.637 160.643 851.069 153.402 812.587 145.503C806.464 144.187 800.341 142.87 794.133 141.468C637.086 106.265 498.551 105.635 370.631 139.607C334.781 149.138 301.736 160.844 270.864 173.78C257.875 179.132 245.028 184.827 232.296 190.837C220.28 196.533 208.435 202.6 196.704 208.897C162.714 226.699 131.328 245.273 101.544 262.903C70.9297 281.048 41.5461 298.449 13.0781 312.645C8.07112 315.078 3.06418 317.424 -1.97137 319.743V322.69C67.9828 291.208 131.471 246.046 199.336 210.442C298.131 158.611 404.364 125.812 515.947 118.428C531.912 117.37 547.934 116.854 563.928 116.769C631.994 116.568 707.928 124.553 793.675 143.757C894.243 166.31 985.369 178.846 1065.8 184.942C1066.25 184.97 1066.71 184.999 1067.14 185.056C1072.86 185.485 1078.5 185.886 1084.11 186.258C1087.08 186.459 1090.03 186.659 1093 186.831C1094.38 186.917 1095.69 186.974 1097.07 187.06C1128.37 188.891 1159.73 189.807 1191.08 189.779C1191.51 189.779 1191.94 189.779 1192.37 189.779C1199.18 189.75 1205.96 189.693 1212.74 189.607C1217.52 189.521 1222.27 189.435 1226.93 189.321C1228.31 189.292 1229.65 189.263 1231.02 189.206C1269.91 188.119 1304.35 185.657 1333.88 182.538C1351.65 180.677 1368.21 178.531 1383.64 176.241C1402.32 173.637 1421.23 170.689 1440.03 167.054V163.877H1440Z" fill="black" fill-opacity="0.1"/>
<path d="M1440 170.861C1436.77 171.576 1433.48 172.292 1430.07 173.007C1419 175.182 1407.96 177.186 1397 179.103C1278.66 199.881 1157.27 201.942 1037.7 192.726C952.038 186.115 867.148 172.664 783.118 154.891C708.214 139.064 631.765 130.134 555.173 130.592C523.901 130.764 492.829 132.91 462.072 136.774C460.155 137.003 458.238 137.261 456.35 137.518C454.033 137.833 451.715 138.091 449.398 138.434C419.899 142.498 391.002 148.222 362.677 155.577C332.464 163.419 304.339 172.75 277.817 182.996C261.451 189.235 245.257 195.932 229.264 203.23C216.646 208.983 204.229 215.165 191.926 221.576C157.221 239.234 125.319 257.637 95.1061 275.124C66.9528 291.437 39.9153 307.035 13.7647 320.029C8.55751 322.547 3.29307 324.98 -1.97137 327.384V330.447C66.2089 299.709 128.553 256.578 195.188 222.778C287.287 176.041 385.623 146.276 488.194 136.774C515.947 134.284 545.102 133.111 575.801 133.511C577.089 133.54 578.348 133.569 579.635 133.597C582.067 133.626 584.499 133.683 586.931 133.74C638.717 135.2 690.417 141.067 741.431 149.911C763.404 153.717 785.235 158.153 807.094 162.589C808.982 162.961 810.842 163.362 812.73 163.734C833.044 167.855 853.386 171.891 873.815 175.383C915.387 182.452 957.245 188.004 999.189 192.24C1122.7 204.747 1248.31 204.518 1371.22 186.144C1393.88 182.767 1417.03 179.017 1440 174.238V170.861V170.861Z" fill="black" fill-opacity="0.1"/>
<path d="M1440 177.5C1424.24 181.021 1408.41 184.083 1393.05 186.945C1274.17 209.04 1152.06 212.56 1031.6 204.632C945.743 198.966 860.596 186.43 776.251 169.515C699.659 154.146 621.579 145.646 543.442 146.619C431.258 148.022 321.592 172.578 219.25 218.341C196.132 228.673 173.644 240.35 151.413 252.485C129.468 264.162 108.611 275.925 88.5255 287.287C72.6464 296.245 57.1964 304.975 42.0325 313.131C27.5553 320.716 12.9064 327.957 -2 334.682V338.546C66.0372 308.037 128.552 265.765 195.646 233.253C296.271 184.484 404.163 156.207 515.947 150.769C592.911 147.02 670.132 153.975 745.952 167.054C757.167 169 768.383 170.946 779.598 172.921C780.256 173.064 780.914 173.179 781.572 173.293C834.76 184.083 885.374 192.097 933.24 197.935C956.73 201.083 980.305 203.802 1004.05 205.806C1127.05 216.224 1251.88 213.905 1373.82 193.843C1395.68 190.236 1417.94 186.315 1440.06 181.421V177.5H1440Z" fill="black" fill-opacity="0.1"/>
<path d="M971.522 213.247C902.626 207.036 834.274 196.647 766.18 183.969C690.675 169.916 613.826 162.275 536.976 163.362C514.917 163.677 492.972 164.879 471.113 166.882C293.81 182.595 176.047 247.448 81.7447 299.394C52.5328 315.507 24.6369 330.847 -2 343.011V345.386C-1.39917 345.1 -0.769722 344.814 -0.168889 344.528C60.6011 317.167 117.28 281.105 177.134 251.684C196.618 242.296 217.161 233.081 238.906 224.38C243.455 222.577 248.004 220.774 252.582 219.057C324.825 191.954 400.158 175.096 477.179 168.514C524.187 164.65 575.372 164.249 631.364 168.485C633.367 168.628 635.37 168.8 637.401 168.972C639.289 169.115 641.178 169.287 643.095 169.458C681.949 172.864 720.631 178.273 758.998 185.113C764.091 186.029 769.212 186.917 774.305 187.832C774.706 187.918 775.106 187.975 775.507 188.061C841.885 200.797 904.343 209.297 962.452 214.621C963.425 214.707 964.397 214.793 965.37 214.907C965.742 214.936 966.114 214.964 966.486 215.022C981.307 216.424 996.156 217.655 1011.03 218.628C1103.39 224.724 1196.61 223.579 1288.7 213.161C1300.58 211.845 1311.88 210.442 1322.55 208.983C1346.61 205.691 1368.59 201.971 1388.5 198.136C1405.61 194.959 1422.86 191.496 1440 187.432V184.656C1409.16 192.24 1369.67 200.339 1322.27 206.836C1239.61 218.141 1120.1 226.126 971.522 213.247Z" fill="black" fill-opacity="0.1"/>
<path d="M1440 191.095C1423.58 195.159 1407.07 198.765 1390.76 202.2C1273.28 226.87 1152.29 233.882 1032.52 229.446C947.832 226.326 863.429 216.681 779.97 202.171C760.143 198.708 740.287 195.531 720.431 192.669C710.817 191.267 701.347 190.007 691.991 188.834C691.991 188.834 691.991 188.834 691.963 188.834C688.586 188.405 685.239 188.004 681.891 187.632C678.458 187.231 675.025 186.831 671.563 186.43C671.534 186.43 671.506 186.43 671.448 186.43C629.247 181.736 586.902 178.903 544.186 178.903C428.797 178.903 315.011 200.626 208.435 244.958C182.456 255.777 157.249 268.226 132.329 281.22C112.101 291.495 92.9889 301.741 74.7922 311.5C66.0086 316.222 57.3395 320.859 48.8133 325.352C32.0186 333.995 15.1094 342.324 -2.11444 350.023V353.944C64.1203 324.465 125.806 285.227 192.155 255.834C294.783 210.356 404.392 186.315 516.519 182.566C596.144 179.905 675.883 187.403 754.335 200.597C766.208 202.6 778.053 204.547 789.927 206.435C829.01 213.075 866.719 218.284 902.941 222.262C938.676 226.412 974.555 229.675 1010.69 231.593C1132.2 238.003 1255 231.907 1374.6 208.954C1396.2 204.804 1418.14 200.339 1439.91 194.93V191.095H1440Z" fill="black" fill-opacity="0.1"/>
<path d="M1440 197.993C1421.98 202.715 1403.84 206.865 1385.93 210.757C1268.16 236.487 1146.74 244.844 1026.43 241.638C941.852 239.377 857.506 230.677 774.019 217.054C766.008 215.737 757.997 214.478 749.957 213.276C697.084 204.747 647.93 199.567 602.181 197.134C580.465 195.903 558.721 195.245 536.862 195.274C491.513 195.359 446.393 198.708 401.789 205.233C398.269 205.749 394.807 206.264 391.346 206.808C389.6 207.094 387.826 207.351 386.081 207.638C379.758 208.668 373.521 209.755 367.369 210.9C367.255 210.929 367.112 210.957 366.998 210.957C353.178 213.533 339.817 216.367 326.828 219.429C325.597 219.715 324.367 220.03 323.137 220.316C318.816 221.375 314.525 222.434 310.29 223.522C274.097 232.766 238.419 244.271 203.514 258.181C180.882 267.196 158.88 277.471 137.107 288.26C112.444 300.166 89.5269 312.13 67.8683 323.463C58.5697 328.329 49.4714 333.051 40.5161 337.659C26.4394 344.728 12.3056 351.482 -2 357.865V361.442C63.3764 332.564 124.604 294.9 190.581 267.053C295.727 222.634 407.854 200.683 521.841 198.193C603.011 196.418 684.209 204.432 764.206 217.912C848.322 232.079 933.183 241.094 1018.42 244.042C1138.61 248.192 1259.86 240.036 1377.74 215.594C1398.34 211.33 1419.29 206.75 1440.03 201.341V197.993H1440Z" fill="black" fill-opacity="0.1"/>
<path d="M1440 204.747C1436.14 205.834 1432.1 206.951 1427.95 208.095C1413.28 211.902 1398.54 215.422 1383.95 218.742C1266.56 245.645 1145.42 255.519 1025.17 253.859C939.334 252.686 853.644 244.901 768.783 231.965C761.688 230.877 754.592 229.847 747.497 228.816C688.186 219.715 631.708 214.249 577.661 212.446C561.896 211.845 546.132 211.558 530.281 211.616C485.905 211.787 441.672 214.878 397.869 220.917C393.835 221.461 389.829 222.033 385.824 222.634C384.536 222.835 383.249 223.007 381.933 223.207C375.438 224.209 368.972 225.296 362.534 226.412C362.134 226.47 361.762 226.555 361.361 226.613C347.656 229.045 334.123 231.764 320.705 234.769C320.59 234.798 320.476 234.827 320.361 234.855C320.075 234.913 319.761 234.998 319.474 235.056C314.296 236.229 309.174 237.46 304.11 238.719C268.518 247.42 233.412 258.238 198.964 271.375C180.196 278.53 161.856 286.515 143.716 294.986C113.16 308.781 85.6358 322.776 60.4867 335.57C48.8419 341.494 37.4833 347.247 26.3822 352.713C16.9692 357.206 7.5275 361.585 -2 365.792V368.855C62.2892 340.578 122.973 304.717 188.321 278.501C296.013 235.285 410.629 215.336 526.476 213.991C609.591 213.018 691.734 222.52 773.762 234.998C855.59 247.477 938.276 254.546 1021.02 256.091C1140.56 258.352 1260.89 248.421 1377.74 222.692C1398.37 218.141 1419.29 213.304 1440 207.666V204.747V204.747Z" fill="black" fill-opacity="0.1"/>
<path d="M1440 210.986C1420.54 216.567 1400.89 221.49 1381.55 226.126C1264.44 254.145 1143.5 265.565 1023.25 265.45C939.506 265.364 855.847 259.011 772.875 247.734C756.194 245.473 739.571 243.27 722.92 241.209C693.651 237.345 665.097 234.34 637.172 232.165C636.085 232.079 634.969 231.965 633.882 231.879C632.194 231.764 630.506 231.621 628.818 231.478C595.028 228.845 561.152 227.271 527.019 227.357C412.861 227.643 299.304 245.387 191.983 284.769C161.026 296.131 131.185 309.754 101.572 323.921C86.3225 331.105 71.9311 338.174 58.2264 344.928C38.3131 354.659 18.3139 364.19 -2 373.119V376.926C61.1733 349.279 121.285 315.335 185.946 290.75C293.896 249.738 408.455 231.621 523.672 230.505C605.843 229.732 687.156 238.576 768.383 250.053C851.584 261.844 935.615 267.997 1019.65 268.513C1139.1 269.228 1259.12 257.809 1375.63 230.963C1396.97 226.04 1418.63 220.774 1440.03 214.649V210.986H1440Z" fill="black" fill-opacity="0.1"/>
<path d="M1440 217.454C1419.89 223.493 1399.57 228.759 1379.49 233.768C1264.07 262.56 1144.79 275.467 1026 277.184C942.968 278.387 859.91 273.407 777.481 263.561C760.171 261.501 742.919 259.411 725.666 257.437C694.881 253.516 665.411 250.568 637.086 248.45C601.008 245.473 564.815 243.527 528.336 243.441C413.405 243.184 298.646 259.182 189.838 296.789C123.488 319.685 62.0889 352.856 -2 380.789V384.682C60.2006 357.664 119.855 325.553 183.915 302.599C293.381 263.361 409.17 247.219 525.16 246.733C608.533 246.361 690.704 255.834 773.275 266.166C855.961 276.526 939.334 281.306 1022.68 280.504C1142.16 279.388 1262.07 266.137 1378.23 237.66C1398.74 232.623 1419.49 227.271 1440.03 221.146V217.454H1440Z" fill="black" fill-opacity="0.1"/>
<path d="M1440 224.151C1419.31 230.591 1398.4 236.229 1377.71 241.61C1261.27 271.832 1140.84 286.171 1020.73 289.09C937.789 291.122 854.76 287.03 772.303 278.043C751.817 275.811 731.36 273.578 710.932 271.46C683.751 268.398 657.543 265.994 632.337 264.248C595.715 261.443 559.007 259.64 522.012 259.64C408.054 259.612 294.039 274.351 185.517 309.84C159.653 318.312 134.504 328.3 109.698 338.947C85.2352 349.193 63.0616 359.439 42.6047 368.969C27.8127 375.695 12.9922 382.364 -1.94281 388.803V392.094C59.1991 365.735 118.281 335.627 181.626 314.333C293.839 276.583 412.26 262.388 530.281 262.789C614.999 263.075 698.371 273.407 782.459 282.336C864.373 291.037 946.859 294.213 1029.17 291.981C1146.59 288.804 1264.21 273.95 1378.03 244.672C1398.63 239.377 1419.46 233.768 1440.06 227.357V224.151H1440Z" fill="black" fill-opacity="0.1"/>
<path d="M1440 230.305C1418.46 237.288 1396.63 243.355 1375.05 249.165C1258.89 280.447 1138.67 296.217 1018.62 300.653C936.073 303.715 853.329 300.739 771.101 292.897C747.211 290.607 723.378 288.26 699.573 286.028C678.944 283.939 658.917 282.25 639.461 280.876C599.606 277.843 559.693 275.725 519.466 275.668C404.736 275.467 289.633 288.833 179.824 322.805C116.965 342.267 58.2264 370.486 -2 396.244V400.051C58.6269 374.178 117.709 345.816 180.911 326.068C293.267 290.951 411.288 278.472 528.65 279.016C613.711 279.388 697.513 289.405 782.059 297.247C863.744 304.803 945.915 306.892 1027.86 303.658C1145.22 299.022 1262.58 282.794 1376.14 252.457C1397.37 246.79 1418.83 240.808 1440 233.968V230.305V230.305Z" fill="black" fill-opacity="0.1"/>
<path d="M1440 236.572C1418.43 243.813 1396.54 250.167 1374.91 256.263C1259.66 288.633 1140.27 305.919 1020.85 312.13C938.962 316.365 856.82 314.734 775.078 308.266C752.704 306.491 730.387 304.545 708.099 302.628C678.401 299.708 649.418 297.448 621.179 295.788C587.732 293.584 554.257 292.01 520.553 291.867C404.936 291.294 288.718 303 177.334 334.997C115.363 352.799 57.1392 378.9 -2 403.914V407.778C56.9675 382.85 114.962 356.892 176.648 338.804C290.005 305.576 408.713 294.471 526.504 295.072C612.109 295.501 696.626 305.118 781.801 311.872C863.257 318.34 945.142 319.313 1026.71 315.078C1143.96 308.981 1261.04 291.351 1374.28 260.012C1396.14 253.974 1418.23 247.591 1440 240.322V236.572Z" fill="black" fill-opacity="0.1"/>
<path d="M1440 243.184C1416.97 251.197 1393.54 258.209 1370.36 264.878C1254.77 298.192 1135.01 316.737 1015.04 324.121C931.609 329.273 847.836 328.357 764.463 322.404C747.182 321.174 729.901 319.857 712.648 318.541C672.85 314.877 635.141 312.359 599.434 310.784C571.166 309.296 542.841 308.323 514.43 308.237C399.242 307.894 283.281 318.455 171.784 348.449C111.786 364.59 55.0505 388.145 -2.02863 412.014V415.105C56.3953 390.692 114.419 366.708 175.847 350.194C290.606 319.342 410.229 309.955 528.707 310.899C616.401 311.586 703.178 321.46 790.585 326.726C869.981 331.534 949.663 331.133 1029.03 325.867C1145.65 318.111 1261.95 299.022 1374.31 266.624C1396.17 260.327 1418.23 253.687 1439.97 246.189V243.184H1440Z" fill="black" fill-opacity="0.1"/>
<path d="M1440 249.165C1416.88 257.494 1393.36 264.792 1370.07 271.775C1255.32 306.148 1136.32 326.182 1016.96 335.283C935.786 341.465 854.216 341.98 772.932 337.716C755.164 336.772 737.426 335.684 719.715 334.511C718.199 334.396 716.711 334.282 715.195 334.167C669.36 330.303 626.386 327.756 585.987 326.325C562.526 325.266 539.036 324.522 515.489 324.408C399.328 323.807 282.251 332.822 169.237 360.641C110.184 375.151 53.9633 396.445 -2 419.512V423.061C54.8503 399.593 111.844 378.013 171.755 363.102C287.63 334.253 407.94 326.096 527.019 326.984C613.568 327.642 699.43 336.485 785.807 340.778C866.576 344.814 947.603 343.469 1028.2 337.115C1144.65 327.957 1260.64 307.579 1372.65 274.237C1395.08 267.568 1417.71 260.528 1440 252.6V249.165V249.165Z" fill="black" fill-opacity="0.1"/>
<path d="M1440 255.319C1416.2 264.134 1391.96 271.918 1367.96 279.331C1254.8 314.248 1137.52 335.484 1019.67 346.188C937.446 353.658 854.76 355.317 772.274 352.083C750.787 351.253 729.329 350.109 707.899 348.907C670.39 346.159 633.939 344.156 598.519 342.868C570.337 341.551 542.097 340.635 513.83 340.492C397.411 339.891 279.991 347.59 166.148 373.119C108.296 386.084 52.7331 405.088 -2 427.269V430.817C53.5342 408.236 109.841 388.975 168.494 375.666C285.113 349.193 405.708 342.267 524.959 343.125C611.737 343.726 697.971 351.883 784.634 355.06C863.801 357.951 943.14 355.718 1022.05 348.763C1139.9 338.346 1257.15 316.594 1370.33 281.907C1393.56 274.78 1417 267.282 1440.03 258.81V255.319H1440Z" fill="black" fill-opacity="0.1"/>
<path d="M1440 261.959C1427.93 266.595 1413.94 271.718 1398.08 277.156C1386.35 281.077 1374.62 284.855 1362.92 288.547C1328.73 299.336 1294.17 308.867 1259.32 317.31C1132.66 347.762 938.247 378.614 703.006 363.846C607.474 357.836 518.865 355.947 437.696 358.094C369.086 359.782 300.391 364.59 232.497 374.464C229.75 374.865 226.975 375.266 224.257 375.666C221.882 376.01 219.536 376.382 217.161 376.754C215.616 376.983 214.043 377.24 212.498 377.469C208.578 378.099 204.744 378.729 200.967 379.387C200.195 379.502 199.451 379.645 198.678 379.788C192.155 380.904 185.803 382.049 179.595 383.222C179.137 383.308 178.679 383.394 178.221 383.48C172.041 384.653 166.033 385.855 160.139 387.057C159.395 387.2 158.651 387.343 157.879 387.515C157.478 387.601 157.106 387.687 156.706 387.773C149.954 389.204 143.373 390.635 136.964 392.123C136.02 392.352 135.047 392.552 134.103 392.781C92.8172 402.426 58.6842 413.159 28.6139 424.178C18.3425 427.87 8.15694 431.762 -2 435.797V437.801C78.6261 405.689 162.514 385.769 247.804 373.921C333.036 362.616 441.701 355.947 580.751 359.639C625.299 361.127 669.789 363.732 714.308 365.821C782.688 369.713 847.521 369.771 908.205 367.138C909.006 367.109 909.836 367.052 910.637 367.023C919.621 366.622 928.548 366.165 937.36 365.649C937.732 365.621 938.104 365.621 938.476 365.592C946.973 365.106 955.356 364.533 963.654 363.932C966.801 363.703 969.948 363.446 973.095 363.217C977.53 362.873 981.965 362.53 986.342 362.158C999.16 361.099 1011.95 359.954 1024.74 358.637C1141.13 346.674 1256.77 323.778 1368.39 288.575C1392.25 281.048 1416.34 273.12 1439.97 264.162V261.959H1440Z" fill="black" fill-opacity="0.1"/>
<path d="M1440 267.339C1414.19 277.471 1387.78 286.343 1361.63 294.814C1248.28 331.563 1130.71 355.26 1012.38 368.511C930.579 377.67 848.208 381.276 765.922 379.988C679.288 378.643 592.911 372.404 506.219 372.203C389.858 371.946 272.524 377.412 157.85 398.305C103.318 408.265 49.6431 422.46 -2 442.609V446.387C66.5522 419.398 138.652 402.426 212.097 391.894C237.389 388.345 264.827 385.197 294.669 382.621C295.126 382.592 295.613 382.535 296.071 382.507C298.417 382.306 300.791 382.106 303.166 381.906C377.612 376.038 452.459 375.151 525.446 375.638C612.767 376.21 699.859 382.907 787.152 383.566C865.718 384.167 944.313 379.788 1022.36 370.858C1139.44 357.464 1255.63 333.108 1367.7 296.56C1391.82 288.69 1416.14 280.419 1440.03 271.117V267.339H1440Z" fill="black" fill-opacity="0.1"/>
<path d="M1440 273.464C1414.11 283.91 1387.58 293.069 1361.32 301.884C1247.5 339.977 1129.4 365.106 1010.38 379.845C930.493 389.747 850.01 394.355 769.556 394.355C682.521 394.355 595.543 388.746 508.48 388.545C390.344 388.288 271.236 392.552 154.417 411.184C101.372 419.627 48.327 431.39 -1.97137 450.479V454C50.4442 433.851 105.778 421.888 161.141 413.187C279.448 394.556 400.101 390.95 519.666 391.379C607.016 391.694 694.28 397.389 781.63 397.16C861.598 396.931 941.566 391.579 1020.9 381.562C1137.18 366.909 1252.43 341.58 1363.64 304.545C1389.16 296.045 1414.88 287.144 1440.06 277.041V273.464H1440Z" fill="black" fill-opacity="0.1"/>
<path d="M1440 279.445C1413.36 290.493 1386.04 300.138 1358.97 309.439C1245.3 348.449 1127.34 374.836 1008.32 390.95C928.748 401.711 848.522 407.32 768.24 408.379C680.976 409.524 593.683 404.744 506.419 404.687C387.855 404.63 268.489 407.893 150.869 423.92C99.3978 430.932 46.9822 440.205 -2.02863 458.264V461.727C49.2139 442.494 104.233 433.078 158.194 425.809C277.302 409.782 398.241 407.063 518.264 407.263C605.814 407.406 693.336 412.157 780.857 410.783C860.654 409.524 940.335 403.17 1019.39 392.295C1135.52 376.296 1250.51 349.822 1361.49 311.958C1387.73 303 1414.16 293.641 1440 283.023V279.445Z" fill="black" fill-opacity="0.1"/>
<path d="M855.132 418.768C814.647 421.459 774.076 422.975 733.534 423.29C721.089 423.376 708.614 423.405 696.168 423.348C690.389 423.29 684.609 423.233 678.773 423.09C623.839 422.002 571.824 421.43 522.756 421.43C506.992 421.344 491.227 421.287 475.434 421.401C371.375 422.117 266.716 424.578 163.143 435.769C160.998 435.998 158.88 436.227 156.763 436.456C156.42 436.484 156.105 436.541 155.762 436.57C140.655 438.23 126.349 440.004 112.845 441.893C83.5186 445.9 53.9347 450.937 25.3522 458.865C15.51 461.498 6.41168 464.274 -1.97137 467.222V468.396C37.1114 454.715 93.7614 444.011 166.92 436.484C171.069 436.055 175.189 435.654 179.337 435.254C184.173 434.796 189.036 434.338 194.015 433.908C263.025 427.841 346.598 424.206 443.79 422.975C472.286 422.689 500.754 422.632 529.165 422.661C598.805 422.747 668.473 425.065 738.084 424.464C739.772 424.435 741.431 424.435 743.119 424.407C759.571 424.235 775.993 423.92 792.445 423.319C834.446 421.802 876.39 418.826 918.191 414.59C923.369 414.075 928.548 413.531 933.726 412.987C935.615 412.787 937.503 412.586 939.391 412.357C962.28 409.839 985.083 406.92 1007.8 403.628C1033.29 399.908 1058.64 395.643 1083.88 390.978C1086.8 390.434 1089.71 389.891 1092.63 389.318C1100.99 387.715 1109.31 386.084 1117.61 384.396C1122.04 383.48 1126.51 382.592 1130.94 381.648C1136.01 380.589 1141.04 379.473 1146.08 378.385C1149.77 377.584 1153.46 376.754 1157.12 375.924C1192.74 367.91 1227.93 358.981 1262.5 349.078C1324.7 331.248 1375.42 313.103 1412.7 298.363C1421.86 294.814 1430.99 291.18 1440.03 287.373V286.114C1402.18 302.084 1341.49 325.352 1262.18 348.077C1165.13 375.867 1024.57 407.12 855.132 418.768Z" fill="black" fill-opacity="0.1"/>
<path d="M1005.17 412.958C924.628 425.694 843.315 433.307 761.831 436.255C722.09 437.686 682.292 437.858 642.494 437.686C632.451 437.6 622.552 437.543 612.767 437.515C575.086 437.2 537.377 436.77 499.724 436.942C381.246 437.486 262.252 439.031 144.174 449.678C95.993 454.028 44.4358 458.35 -2.02863 474.263V476.781C6.18276 473.891 14.5372 471.344 23.0061 469.14C44.9222 463.902 71.8453 459.352 104.119 455.459C120.37 453.742 136.535 452.397 152.328 450.995C272.724 440.462 394.064 439.289 514.831 438.86C602.496 438.545 690.274 441.264 777.882 437.629C855.99 434.395 933.869 426.353 1011.06 414.132C1127.77 395.672 1243.13 366.909 1354.45 327.298C1383.06 317.11 1411.88 306.463 1439.94 294.328V291.58C1411.93 303.744 1383.15 314.448 1354.6 324.723C1241.44 365.449 1123.93 394.184 1005.17 412.958Z" fill="black" fill-opacity="0.1"/>
<path d="M996.842 421.545C917.103 435.025 836.62 443.84 755.908 448.476C668.616 453.456 580.98 452.826 493.573 454.143C375.581 455.946 257.36 456.89 139.539 463.702C93.7614 466.335 42.7192 467.194 -2 481.59V485.339C13.3928 480.588 29.5294 477.898 45.38 475.579C78.6833 470.743 112.387 468.482 145.948 466.593C265.342 459.81 385.108 458.98 504.646 457.177C592.31 455.831 680.175 456.261 767.725 451.052C847.979 446.272 927.918 436.799 1007.14 423.233C1125.28 403.027 1242.04 373.091 1354.97 332.822C1383.44 322.662 1412.05 312.072 1440 300.138V296.303C1409.96 309.239 1379.14 320.544 1348.5 331.42C1234.34 371.946 1116.24 401.367 996.842 421.545Z" fill="black" fill-opacity="0.1"/>
<path d="M1001.22 434.28C922.768 448.447 843.516 457.892 763.977 463.015C676.513 468.653 588.676 467.795 501.098 468.739C381.017 469.998 260.764 470.084 140.741 475.036C106.98 476.409 73.1042 478.184 39.5433 482.42C25.6956 484.165 11.5617 486.226 -2 490.004V492.809C12.7633 488.43 28.2992 486.226 43.4631 484.337C76.5089 480.187 109.869 478.556 143.116 477.153C263.111 472.116 383.392 472.145 503.473 470.857C591.08 469.941 678.887 470.571 766.351 465.133C845.89 460.21 925.143 450.394 1003.59 436.398C1120.7 415.506 1236.29 384.596 1347.87 343.297C1378.74 331.878 1409.82 319.914 1440 306.291V303C1410.5 316.394 1380.15 328.186 1349.96 339.49C1237.03 381.848 1119.87 412.873 1001.22 434.28Z" fill="black" fill-opacity="0.1"/>
<path d="M999.99 444.441C920.308 459.695 839.71 470.17 758.798 476.209C671.506 482.734 583.784 482.906 496.291 484.165C376.668 485.883 257.016 485.367 137.393 487.457C104.204 488.029 70.9297 488.745 37.8839 491.75C24.7228 492.952 11.0181 494.354 -2 497.645V500.937C11.6189 497.388 25.9531 496.014 39.7722 494.755C72.3317 491.778 105.12 491.177 137.794 490.576C257.417 488.401 377.069 488.945 496.692 487.285C584.184 486.054 671.877 485.654 759.199 479.329C837.479 473.69 915.387 463.33 992.551 449.048C1111.63 427.011 1229.02 394.785 1342.41 352.169C1375.14 339.863 1408.1 326.955 1440.03 312.215V308.581C1409.3 322.805 1377.6 335.283 1346.13 347.304C1234 390.005 1117.75 421.888 999.99 444.441Z" fill="black" fill-opacity="0.1"/>
<path d="M135.705 502.683C255.929 503.455 376.067 504.428 496.291 502.282C583.984 500.708 671.82 499.162 759.256 491.75C837.278 485.138 914.872 473.919 991.721 458.865C1110.69 435.54 1227.93 402.226 1341.12 358.781C1374.28 346.045 1407.67 332.736 1440 317.567V314.705C1409.04 329.33 1377.14 342.181 1345.38 354.573C1234.06 398.019 1118.61 430.961 1001.59 454.916C922.339 471.143 842.142 482.677 761.545 489.918C674.109 497.76 586.13 499.134 498.408 500.794C377.383 503.083 256.416 502.139 135.391 501.28C102.202 501.051 68.9556 500.708 35.7953 502.396C23.4639 503.026 10.4172 503.684 -2 506.26V508.292C11.2183 505.144 25.3236 504.543 38.5706 503.827C70.9011 502.082 103.346 502.482 135.705 502.683Z" fill="black" fill-opacity="0.1"/>
<path d="M-2 516.306C10.5603 513.902 24.0361 514.159 36.3389 513.988C69.1558 513.558 102.001 515.018 134.79 516.02C254.642 519.74 374.494 520.999 494.403 518.309C542.098 517.25 589.649 515.533 637.086 512.9C638.86 512.814 640.634 512.757 642.408 512.671C713.192 509.551 784.691 502.74 856.047 492.379C900.537 486.226 944.913 478.785 989.203 469.626C1107.31 445.185 1223.61 411.07 1336.03 367.281C1370.93 353.686 1406.07 339.491 1440.03 323.206V320.458C1408.5 335.627 1375.97 348.935 1343.61 361.814C1231.17 406.519 1114.55 440.777 996.242 466.02C830.354 501.395 662.808 512.528 493.602 516.42C372.376 519.196 251.237 517.737 130.069 513.988C97.6239 512.986 65.1503 511.612 32.6767 512.127C21.4897 512.299 9.44444 512.328 -2 514.302V516.306Z" fill="black" fill-opacity="0.1"/>
<path d="M994.067 476.581C827.465 513.873 658.745 527.811 488.366 532.448C368.514 535.71 248.691 533.907 128.982 527.296C95.9072 525.464 62.8328 522.974 29.7011 522.144C19.6586 521.887 8.52887 521.286 -2.02863 522.545V524.234C10.0453 522.459 23.1492 523.518 34.5936 523.862C66.3233 524.777 98.0244 527.124 129.697 528.899C249.406 535.567 369.229 537.199 489.081 534.05C536.89 532.791 584.556 530.759 632.108 527.668C633.51 527.582 634.883 527.525 636.285 527.439C705.753 523.633 775.936 516.306 846.033 505.573C890.466 499.048 934.756 491.235 978.932 481.819C1098.15 456.347 1215.46 421.201 1328.9 376.554C1366.21 361.871 1403.75 346.474 1439.94 328.787V326.096C1407.64 341.952 1374.25 355.861 1341.06 369.313C1228.76 414.79 1112.29 450.107 994.067 476.581Z" fill="black" fill-opacity="0.1"/>
<path d="M1440 331.734C1406.95 348.248 1372.76 362.759 1338.72 376.783C1227.76 422.46 1112.8 458.522 996.099 486.112C831.699 524.978 664.782 542.207 496.177 548.131C373.607 552.424 250.894 550.621 128.61 541.005C95.3636 538.401 62.1747 534.88 28.9286 532.505C19.5156 531.818 8.44306 530.387 -2 530.959V532.304C4.23722 531.961 11.9908 532.133 21.4325 532.677C24.8372 532.963 28.1561 533.278 31.3033 533.507C62.1747 535.653 92.9603 538.944 123.803 541.434C240.536 550.936 357.67 553.14 474.747 549.906C523.014 548.589 571.138 546.3 619.147 542.894C622.867 542.665 626.558 542.436 630.306 542.178C698.829 537.685 768.097 529.786 837.393 518.595C881.397 511.727 925.258 503.627 968.975 493.982C1090.09 467.308 1209.22 430.846 1324.44 384.853C1363.32 369.313 1402.41 353.056 1440.09 334.339V331.734H1440Z" fill="black" fill-opacity="0.1"/>
<path d="M1440 337.144C1406.27 354.259 1371.36 369.341 1336.57 383.88C1225.73 430.302 1110.97 467.365 994.325 496.129C830.526 536.54 663.723 556.574 495.347 563.558C372.434 568.652 249.12 566.706 126.664 554.227C93.1319 550.793 59.7428 546.214 26.2392 542.293C17.9133 541.32 7.67054 539.288 -2.02863 539.202V540.833C2.97832 540.89 9.01526 541.32 16.0822 542.007C20.4597 542.608 24.6369 543.295 28.4136 543.724C58.7128 547.244 88.9261 551.394 119.282 554.657C235.329 567.135 352.177 569.682 468.796 566.048C547.305 563.615 625.527 558.292 703.321 549.477C705.753 549.19 708.185 548.933 710.617 548.647C716.768 547.931 722.92 547.187 729.071 546.443C729.329 546.414 729.615 546.386 729.872 546.328C809.411 536.483 888.464 522.888 966.858 504.8C1087.02 477.039 1205.16 439.89 1319.49 393.611C1360.03 377.183 1400.8 359.954 1440 340.149V337.144Z" fill="black" fill-opacity="0.1"/>
<path d="M27.6411 554.113C58.3981 559.236 89.1264 564.302 120.026 568.309C236.388 583.391 354.122 585.824 471.285 581.388C518.779 579.585 566.188 576.494 613.396 572.086C614.999 571.943 616.544 571.829 618.146 571.686C730.015 561.984 844.059 543.323 957.159 516.22C963.739 514.646 970.32 512.986 976.901 511.326C979.304 510.753 981.679 510.152 984.082 509.551C987.487 508.693 990.891 507.863 994.325 506.976C1103.1 479.5 1210.05 444.498 1314.37 401.682C1356.68 384.31 1399.17 366.107 1440.03 345.129V343.097C1405.64 360.841 1369.96 376.468 1334.45 391.579C1221.21 439.747 1103.85 478.441 984.597 508.636C819.539 550.421 650.991 572.573 481.013 579.9C359.644 585.137 237.618 582.447 117.079 566.649C85.1781 562.47 53.5342 556.975 21.7758 551.795C14.9378 550.679 6.29722 548.532 -2 547.902V548.704C2.43472 548.961 7.09833 549.734 11.6189 550.679C6.38306 549.906 1.83389 549.333 -2 548.99V549.362C3.26444 549.82 9.73056 550.707 17.4269 551.938C21.175 552.825 24.6656 553.626 27.6411 554.113ZM669.789 566.248C728.842 559.436 787.638 550.621 845.976 539.66C790.127 550.307 731.188 559.436 669.789 566.248Z" fill="black" fill-opacity="0.1"/>
<path d="M1440 348.363C1404.92 366.737 1368.53 382.907 1332.28 398.563C1220.38 446.902 1104.53 486.197 986.743 517.451C822.658 560.982 654.596 586.225 485.104 595.011C363.478 601.308 240.765 598.961 120.198 580.758C86.8661 575.721 53.8489 569.081 20.9175 561.926C14.8233 560.61 6.21137 557.691 -2.02863 556.374V557.748C1.14721 558.206 4.43749 558.95 7.67054 559.808C4.03693 559.064 0.803874 558.463 -2.02863 557.977V558.263C1.91971 558.921 6.61193 559.837 12.0194 560.982C16.3397 562.213 20.3453 563.443 23.4925 564.101C52.4183 570.369 81.43 576.151 110.642 580.816C224.915 599.104 341.305 602.252 456.779 597.873C748.469 586.797 1037.07 523.489 1306.73 411.699C1351.65 393.096 1396.74 373.577 1439.97 351.024V348.363H1440Z" fill="black" fill-opacity="0.1"/>
<path d="M1440 353.142C1404.06 372.117 1366.78 388.832 1329.62 405.059C1218.32 453.656 1103.25 493.667 986.228 525.979C825.433 570.369 660.433 598.675 493.916 609.035C370.459 616.734 245.343 614.902 123.116 594.496C88.783 588.772 54.8216 581.216 21.2036 572.23C13.4786 570.169 5.7536 567.994 -2.02863 566.048V567.307C-0.85557 567.593 0.374708 567.908 1.66221 568.251C8.01387 570.14 14.2797 572.716 18.3425 573.804C45.9236 581.245 73.7336 587.828 101.801 593.18C212.354 614.33 325.826 618.48 438.096 614.702C733.906 604.713 1027.83 535.281 1300.61 421.23C1347.61 401.568 1394.79 381.018 1440 357.149V353.142Z" fill="black" fill-opacity="0.1"/>
<path d="M1440 359.181C1403.21 378.958 1364.98 396.33 1326.87 413.216C1215.69 462.529 1100.76 503.484 983.853 536.912C822.086 583.162 655.598 614.044 487.679 625.577C363.478 634.106 236.903 632.103 114.419 607.976C81.1153 601.422 48.2411 592.893 15.9964 582.275C12.0194 580.959 4.98111 577.438 -2 574.834V577.124C5.06694 579.499 12.1053 581.932 19.2008 584.25C46.8678 593.265 75.0497 600.649 103.518 606.688C212.898 629.985 325.912 634.164 437.352 629.785C731.904 618.222 1025.37 543.953 1296.26 429.129C1344.75 408.58 1393.42 387.057 1440 362.158V359.181Z" fill="black" fill-opacity="0.1"/>
<path d="M1440 364.848C1402.41 385.311 1363.29 403.342 1324.33 420.858C1212.14 471.258 1096.18 513.444 978.188 548.074C817.336 595.269 651.421 628.211 484.131 640.775C362.048 649.962 237.189 647.959 117.108 622.086C82.8606 614.702 48.985 605.086 16.3111 592.378C10.1597 589.974 4.06556 587.398 -2 584.794V586.826C4.00833 589.745 10.1025 593.065 12.7347 594.095C38.7136 604.341 65.4936 612.412 92.5597 619.167C200.939 646.184 314.468 650.992 425.65 646.528C591.48 639.859 756.538 610.18 916.703 567.536C1041.56 534.308 1164.07 491.979 1282.95 441.35C1336 418.74 1389.24 394.985 1440.03 367.338V364.848H1440Z" fill="black" fill-opacity="0.1"/>
<path d="M408.255 663.299C573.656 657.546 738.57 626.264 898.106 583.363C1025.94 548.99 1151.31 505.201 1272.94 453.027C1329.42 428.814 1386.07 403.285 1440 373.52V369.484C1402.29 390.32 1363.06 408.723 1323.92 426.61C1213.6 477.039 1099.7 519.683 983.739 555.229C825.462 603.74 662.007 639.115 497.064 654.541C372.462 666.19 244.199 665.531 121.6 637.941C81.0581 628.783 35.5092 617.335 -2 596.299V598.016C24.265 612.727 54.7358 622.115 82.8892 630.328C187.863 661.009 299.533 667.077 408.255 663.299Z" fill="black" fill-opacity="0.1"/>
<path d="M404.621 672.114C488.709 668.794 571.939 656.974 654.825 642.979C736.911 629.098 818.738 612.87 899.422 592.321C1047.31 554.685 1190.94 500.364 1328.39 434.195C1366.07 416.049 1403.81 397.246 1440 376.096V373.921C1373.36 413.359 1301.98 445.957 1231.08 476.467C1078.84 541.978 921.567 589.516 759.141 621.943C598.948 653.911 435.636 679.24 271.866 668.737C188.235 663.385 102.659 649.218 25.1519 616.133C16.0822 612.269 6.81222 608.176 -2 603.426V606.974C24.5797 621.628 55.0792 631.216 83.4328 639.573C187.062 670.082 297.215 676.35 404.621 672.114Z" fill="black" fill-opacity="0.1"/>
<path d="M407.768 681.015C491.742 677.094 574.371 663.671 657.114 649.475C738.57 635.48 819.969 620.855 900.452 601.966C1047.66 567.421 1189.11 510.839 1324.07 443.067C1363.27 423.376 1402.55 402.941 1440 379.845V377.155C1374.45 418.167 1303.75 452.111 1233.49 483.793C1158.41 517.651 1081.36 548.532 1002.59 572.659C928.948 595.212 853.472 611.382 777.882 625.864C616.486 656.773 453.289 687.225 288.288 679.269C200.452 675.033 110.528 660.809 29.0717 626.436C18.6858 622.057 8.07113 617.392 -1.97137 611.897V615.045C24.9803 630.071 55.8803 640.002 84.6917 648.645C188.808 679.784 299.733 686.052 407.768 681.015Z" fill="black" fill-opacity="0.1"/>
<path d="M448.339 713.985C533.285 705.599 615.714 684.363 699.688 670.025C772.989 657.518 846.978 649.504 920.279 637.083C987.372 625.721 1050.29 606.889 1112.8 580.071C1183.3 549.82 1251.74 514.703 1317.69 475.551C1357.43 451.968 1397.23 427.068 1434.48 399.307C1377.08 444.841 1313.22 483.622 1249.71 519.168C1181.18 557.519 1108.83 595.011 1033.75 618.651C971.264 638.342 905.544 645.841 840.769 653.854C762.117 663.585 683.808 674.547 606.473 692.148C525.646 710.551 443.99 723.029 361.018 725.204C256.673 727.952 149.811 714.729 52.0178 677.008C33.8783 669.996 15.1953 662.297 -2 652.566V655.886C30.2447 674.318 67.1817 686.538 102.116 696.813C216.331 730.442 338.043 734.534 455.806 721.655C540.495 712.382 622.466 689.687 706.325 675.548C777.939 663.471 850.268 656.802 922.053 646.07C986.657 636.396 1047.26 619.682 1107.14 593.609C1178.35 562.613 1247.25 526.266 1313.45 485.682C1354.77 460.353 1396.08 433.479 1434.48 403.485C1379.06 449.449 1317.12 488.859 1255.43 524.92C1188.19 564.245 1116.72 602.996 1042.48 627.18C981.908 646.899 917.847 653.139 854.874 659.95C777.71 668.279 700.975 678.095 625.184 695.21C542.469 713.899 460.67 729.927 375.695 733.475C268.175 737.969 157.936 725.147 56.8817 686.853C37.0542 679.326 16.6831 670.998 -2 660.408V664.358C32.1044 683.82 71.3303 696.641 108.324 707.259C224.199 740.516 348.114 744.265 467.194 728.982C553.485 717.906 636.972 693.379 722.805 679.698C792.645 668.565 863.171 663.471 933.183 653.854C997.329 645.039 1056.33 627.839 1115.29 601.136C1185.22 569.453 1252.68 532.304 1317.29 490.834C1356.51 465.648 1395.77 438.974 1432.22 409.41C1378.43 455.688 1318.12 495.728 1257.95 532.276C1191.88 572.43 1121.1 612.498 1047.43 636.739C989.003 655.972 926.946 660.952 866.061 666.533C791.071 673.402 716.511 681.959 642.894 698.273C599.291 707.918 556.346 719.595 512.285 727.351C472.143 734.42 431.573 739.028 390.888 741.403C280.363 747.871 166.863 735.679 62.6039 697.214C40.8594 689.2 18.4569 680.185 -2 668.594V672.343C33.1344 692.377 73.5333 705.571 111.729 716.475C229.235 749.961 354.008 752.794 474.518 736.538C560.494 724.947 643.381 698.788 729.042 685.451C798.396 674.661 868.464 670.912 938.104 662.555C998.502 655.314 1054.38 640.403 1109.71 615.045C1180.35 582.676 1248.25 544.325 1313.05 501.481C1355.8 473.232 1398.51 443.01 1437.6 409.295C1384.29 457.978 1323.7 500.078 1263.21 538.429C1228.88 560.18 1193.57 580.386 1157.55 599.19C1124.59 616.39 1090.92 633.563 1055.7 645.669C998.559 665.302 937.36 669.166 877.563 673.602C804.69 679.04 732.304 686.281 660.748 701.65C616.916 711.066 573.97 723.83 529.966 732.531C489.367 740.573 448.253 746.068 406.996 749.217C294.011 757.831 178.078 746.44 70.9869 708.404C46.41 699.675 21.0319 689.715 -1.97139 676.664V680.442C34.1072 700.877 75.4217 714.357 114.59 725.433C233.498 759.033 359.673 761.523 481.385 743.779C566.961 731.3 649.246 703.997 734.765 691.003C801.629 680.843 869.123 678.296 936.359 671.627C995.011 665.789 1050.06 653.768 1103.7 628.955C1173.52 596.671 1240.49 558.148 1304.24 515.132C1348.79 485.081 1393.28 452.769 1433.76 416.765C1383.21 464.189 1325.98 505.716 1268.68 543.638C1236.37 564.989 1203.13 584.88 1169.2 603.483C1135.29 622.057 1100.47 640.718 1064.02 653.854C1010.09 673.287 952.095 676.75 895.359 680.042C825.605 684.077 756.252 689.257 687.528 702.68C643.524 711.266 600.722 724.517 557.061 734.592C516.891 743.865 476.149 750.562 435.178 754.998C316.442 767.82 193.9 758.175 80.4572 719.709C52.6472 710.293 23.9217 699.417 -2 684.764V688.628C35.5092 709.835 78.4831 723.83 119.311 735.193C240.651 768.936 369.286 770.682 493.115 750.705C578.291 736.967 660.004 708.69 745.522 696.441C811.671 686.968 878.421 685.623 944.942 680.213C1000.16 675.72 1052.69 664.902 1103.02 641.233C1173.69 607.976 1241.15 567.994 1305.1 523.232C1346.53 494.24 1387.9 463.158 1425.84 428.929C1379.17 473.261 1326.9 512.728 1274.48 548.904C1235.97 575.492 1195.49 601.794 1153.49 624.547C1152.8 624.919 1152.14 625.291 1151.46 625.635C1126.19 639.229 1100.41 651.507 1074.15 661.782C1022.42 681.988 966.372 685.336 911.467 687.655C843.229 690.517 775.393 693.808 708.013 705.857C666.041 713.355 625.413 725.176 584.27 736.109C541.983 747.356 498.923 755.713 455.549 761.466C334.009 777.55 208.177 769.709 91.1292 732.245C79.1697 728.41 67.0386 724.288 54.9933 719.795C29.1289 709.721 9.90222 700.276 -1.97139 693.951V695.525C36.1672 717.219 79.7992 731.529 121.428 743.178C246.287 778.066 378.785 779.182 505.904 756.572C590.393 741.546 671.219 712.64 756.538 701.221C820.083 692.72 884.057 692.377 947.946 688.542C1001.76 685.308 1053.78 676.35 1102.7 652.91C1173.52 619.023 1240.9 577.982 1304.53 532.018C1349.73 499.363 1394.77 464.074 1435.19 424.893C1387.01 474.034 1331.88 517.536 1276.4 557.147C1245.19 579.442 1212.91 600.249 1179.84 619.71C1146.76 639.172 1112.66 658.748 1076.81 672.6C1026.14 692.177 971.121 694.151 917.475 695.382C852.643 696.87 788.239 699.103 724.15 709.778C639.061 723.974 558.091 754.54 472.658 767.562C347.542 786.594 217.619 779.525 96.6797 741.375C63.3192 730.814 28.8142 718.364 -2 701.02V704.798C37.8839 727.007 83.4042 741.632 126.75 753.366C251.981 787.224 384.536 787.711 511.569 763.727C555.316 755.456 597.632 742.634 640.52 730.957C679.803 720.253 719.83 712.497 760.171 707.231C823.116 699.045 886.375 699.732 949.663 697.242C999.789 695.268 1049.34 688.628 1095.41 667.735C1164.85 636.253 1230.54 594.095 1292.05 549.276C1343.7 511.612 1395.05 470.285 1440.03 424.034V379.931C1376.94 421.544 1308.47 456.232 1240.47 488.487C1167.79 522.917 1092.95 554.771 1016.18 578.898C945.915 600.993 873.414 615.331 801.028 628.497C623.353 660.838 433.032 702.022 249.635 686.682C231.924 685.136 215.301 683.219 199.766 681.015C144.861 673.116 90.7572 659.521 37.9697 638.457C24.6083 633.133 10.875 627.381 -1.97139 620.369V622.916C27.7269 640.059 62.2892 651.049 94.4481 660.408C203.8 692.262 320.132 697.099 433.146 689.114C519.724 683.018 604.67 666.132 690.046 651.364C768.011 637.884 846.148 625.005 923.283 607.346C1068.6 574.061 1207.56 513.329 1338.57 442.981C1368.53 426.896 1398.51 410.297 1427.44 392.18C1367.73 432.392 1303.1 466.449 1238.86 498.075C1167.34 533.278 1093.32 566.334 1017.13 589.974C947.116 611.697 874.53 624.147 802.344 636.196C717.198 650.42 632.366 666.791 547.19 680.843C471.428 693.379 394.521 699.732 317.729 698.33C222.769 696.584 125.577 682.589 37.1972 646.499C24.0933 641.147 10.6175 635.394 -2 628.411V631.187C27.2692 647.93 60.9444 659.006 92.5597 668.451C201.597 701.049 317.929 706.344 430.829 697.958C517.32 691.547 601.723 673.316 687.013 658.548C762.775 645.44 838.938 634.421 914.299 618.995C1060.33 589.115 1198.15 527.267 1328.1 455.316C1362.29 436.398 1396.54 416.679 1429.24 394.956C1371.3 436.141 1308.16 471.143 1245.42 503.57C1174.03 540.461 1099.67 575.492 1022.82 599.419C956.787 619.997 888.006 630.586 819.797 641.09C736.195 653.969 653.252 668.651 570.194 684.564C491.856 699.589 412.117 707.803 332.321 707.517C234.242 707.145 133.903 693.379 42.4044 656.745C27.5267 650.792 12.1911 644.352 -2 636.396V639.401C28.0989 656.63 62.6897 668.078 95.2206 677.781C205.631 710.751 323.423 715.76 437.638 706.086C522.442 698.902 604.899 679.526 688.558 664.987C763.977 651.879 839.996 642.32 915.272 628.325C1059.44 601.537 1193.8 538.973 1320.52 466.564C1358.63 444.784 1396.8 421.917 1432.82 396.473C1374.8 440.176 1310.82 477.325 1247.25 511.469C1177.49 548.961 1104.36 585.109 1028.66 608.806C963.825 629.098 895.931 638.085 828.867 647.415C748.212 658.634 668.158 671.312 588.533 688.456C508.994 705.571 427.825 715.416 346.455 716.275C245.229 717.334 141.571 703.739 46.9536 666.39C30.5308 659.922 13.6217 652.853 -1.97139 644.009V647.901C29.2433 665.703 64.9786 677.523 98.7397 687.511C211.525 721.083 331.834 725.462 448.339 713.985Z" fill="black" fill-opacity="0.1"/>
<path d="M1281.27 562.728C1250.77 585.423 1219.15 606.602 1186.73 626.436C1153.92 646.527 1119.84 666.733 1084.13 681.301C1035.3 701.221 982.079 702.938 930.093 703.253C867.635 703.625 805.634 704.197 743.691 713.298C658.688 725.777 578.491 757.402 494.059 772.513C365.796 795.467 232.039 790.287 107.037 752.766C70.2144 741.718 32.0186 728.324 -2.00001 709.263V712.726C38.9997 735.393 85.6644 750.333 130.212 762.239C256.873 796.068 390.831 796.154 518.922 770.424C561.038 761.981 601.723 749.131 643.009 737.511C683.293 726.177 724.465 718.078 765.979 712.898C827.808 705.17 889.808 706.744 951.923 705.628C1000.62 704.769 1048.94 699.675 1094.01 680.013C1162.47 650.162 1227.02 606.574 1286.79 562.155C1338.12 523.976 1388.99 481.99 1433.76 435.254C1389.93 483.135 1339.75 526.208 1289.08 565.704C1256.6 591.004 1222.47 615.847 1186.93 638.256C1175.2 645.554 1163.13 652.795 1150.74 659.893C1132 670.454 1112.92 680.242 1093.52 688.885C1048.34 709.034 998.788 711.896 950.035 711.696C925.229 711.581 900.48 711.209 875.76 711.266C875.045 711.266 874.33 711.266 873.586 711.266C872.155 711.266 870.725 711.266 869.294 711.295C867.635 711.295 865.947 711.323 864.259 711.323C832.872 711.61 801.486 712.783 770.071 716.361C730.587 720.854 691.59 728.868 653.252 739.228C610.192 750.877 568.219 765.301 524.559 774.832C392.976 803.566 254.67 802.049 124.547 766.646C121.829 765.902 119.111 765.158 116.393 764.385C58.8272 747.786 17.9992 728.553 -2.00001 718.049V719.452C38.1128 741.632 83.4328 756.543 127.007 768.564C254.041 803.652 388.742 804.826 517.549 778.867C561.152 770.081 603.125 756.486 645.755 744.094C684.581 732.789 724.293 724.603 764.377 719.366C824.975 711.409 885.745 712.955 946.687 713.584C995.727 714.1 1044.79 711.667 1090.83 693.178C1123.42 680.07 1154.17 660.866 1184.04 642.578C1216.63 622.63 1248.08 600.85 1278.6 577.896C1329.22 539.832 1379.26 497.76 1423.63 451.309C1382.98 495.642 1337.2 536.054 1290.91 573.289C1232.05 620.626 1167.45 666.619 1098.53 698.072C1053.03 718.822 1003.05 720.482 953.954 719.194C896.074 717.677 838.652 715.073 780.857 720.968C742.146 724.918 703.893 732.502 666.327 742.462C623.038 753.939 581.037 769.394 537.405 779.697C403.076 811.437 261.222 810.664 127.894 774.517C84.0336 762.639 38.3417 747.528 -2.00001 725.29V728.954C41.6892 752.851 91.2722 768.535 138.795 780.813C269.405 814.556 407.139 813.297 538.264 783.074C581.981 773 623.982 757.602 667.185 745.839C704.723 735.622 743.062 728.524 781.716 724.346C841.112 717.906 900.423 721.312 959.963 722.714C1005.91 723.802 1051.75 721.169 1094.75 703.539C1128.28 689.773 1159.87 669.309 1190.37 649.905C1221.24 630.271 1251.02 608.949 1279.92 586.511C1329.45 548.046 1378.26 505.545 1421.55 458.865C1383.75 501.194 1341.49 540.118 1298.66 576.208C1240.27 625.377 1176.29 671.484 1107.85 705.657C1065.22 726.95 1018.07 730.041 971.236 728.467C916.846 726.607 862.942 721.97 808.496 725.376C772.331 727.637 736.453 733.189 701.118 741.117C657.915 750.819 616.601 766.474 574.113 778.638C436.723 818.019 290.062 822.312 150.955 789.228C138.309 786.222 125.377 782.874 112.387 779.182C57.1678 762.754 17.5986 744.265 -2.00001 734.162V735.937C41.4603 759.634 90.4711 775.347 137.737 787.797C269.577 822.513 408.97 821.626 541.354 790.258C584.871 779.955 626.615 764.185 669.589 752.107C706.697 741.689 744.693 734.391 783.003 730.184C841.627 723.716 900.108 727.351 958.818 730.241C1003.88 732.474 1049.17 732.073 1091.97 716.074C1122.36 704.741 1150.54 686.252 1177.84 669.08C1210.31 648.674 1241.52 626.264 1271.71 602.624C1323.9 561.726 1375.17 516.105 1420.23 465.992C1383.41 508.435 1342.24 547.616 1300.41 583.992C1243.18 633.706 1180.27 680.5 1112.63 715.101C1070.86 736.481 1024.57 739.056 978.56 736.595C925.944 733.79 873.843 728.181 821.056 730.528C786.122 732.073 751.388 736.91 717.169 744.094C676.055 752.737 636.886 766.703 597.002 779.525C456.235 824.716 304.597 831.643 160.454 798.787C132.043 792.319 102.888 784.505 74.4203 774.688C54.1064 767.476 36.8539 760.35 23.0633 754.168C14.5372 750.218 6.18276 746.04 -2.00001 741.575V744.981C43.6347 769.48 95.0775 785.593 144.632 798.157C278.389 832.043 419.384 829.84 552.827 795.753C596.087 784.706 637.573 768.22 680.604 756.4C717.97 746.126 756.223 739.2 794.791 735.593C851.527 730.27 907.89 734.964 964.483 738.885C1007.26 741.833 1050.35 742.319 1091.32 727.952C1120.36 717.792 1146.94 700.162 1172.74 683.848C1205.25 663.27 1236.43 640.66 1266.53 616.705C1321.49 573.002 1375.28 523.776 1421.97 469.684C1386.21 512.471 1346.13 552.138 1305.27 589.001C1249.19 639.601 1187.82 685.251 1121.84 722.142C1082.88 743.922 1039.36 748.272 995.498 745.925C945.285 743.206 895.674 735.822 845.261 736.08C773.476 736.423 702.92 750.991 635.198 774.231C554.114 802.049 472.63 821.826 386.768 826.663C319.961 830.412 252.753 825.318 187.119 812.639C163.315 808.031 139.024 802.479 114.876 795.753C64.0058 780.785 25.8958 764.042 4.29443 753.452C2.17721 752.365 0.0599855 751.249 -2.02863 750.104V752.708C45.8091 778.409 99.9414 795.066 152.042 807.859C289.49 841.602 434.176 837.624 570.222 799.245C612.624 787.281 653.423 770.596 696.082 759.434C732.161 749.989 769.041 743.865 806.207 740.945C860.167 736.738 913.699 741.976 967.373 746.898C1009.09 750.733 1051.29 752.594 1091.66 739.371C1120.47 729.927 1146.48 712.44 1171.77 696.183C1204.1 675.405 1235.03 652.509 1264.84 628.296C1320.43 583.162 1374.57 532.075 1421.32 476.094C1387.78 517.451 1350.36 556.059 1312.14 592.092C1256.09 644.953 1194.55 692.062 1128.02 730.986C1089.11 753.767 1045.97 758.261 1001.76 755.055C954.155 751.592 907.147 743.55 859.309 742.605C790.499 741.232 722.576 753.538 657.257 774.631C614.97 788.283 573.942 804.024 530.653 814.499C490.082 824.316 448.739 830.584 407.139 833.932C337.671 839.542 267.545 835.42 199.022 823.057C179.022 819.45 158.709 815.186 138.395 810.12C76.8808 793.978 30.7597 774.173 5.61054 762.067C3.06415 760.751 0.489152 759.434 -2.02863 758.089V760.808C45.9236 786.108 99.8555 802.708 151.871 815.501C288.374 849.072 432.202 845.953 567.39 807.773C609.791 795.81 650.419 778.695 692.878 766.904C728.814 756.915 765.607 750.276 802.773 747.013C857.249 742.262 911.238 747.642 965.342 753.882C1005.14 758.489 1045.62 762.353 1084.94 752.222C1109.08 746.011 1130.26 733.619 1151.34 720.654C1184.5 700.247 1216.18 677.466 1246.67 653.253C1306.67 605.572 1361.43 551.28 1410.87 492.78C1420.72 481.132 1430.5 469.283 1439.97 457.205V424.178C1392.33 475.608 1337 521.257 1281.27 562.728Z" fill="black" fill-opacity="0.1"/>
<path d="M583.326 810.693C624.898 797.814 664.896 780.813 707.069 769.709C741.917 760.522 777.596 754.683 813.531 752.193C866.462 748.53 918.734 754.912 971.064 762.038C1009.52 767.276 1048.66 771.798 1086.85 762.382C1099.7 759.205 1111.66 754.225 1123.22 748.272C1123.25 748.272 1123.25 748.243 1123.27 748.243C1131.06 744.237 1138.7 739.801 1146.25 735.136C1178.07 715.588 1208.42 693.722 1237.66 670.511C1301.12 620.14 1358.49 561.955 1409.87 499.363C1420.12 486.884 1430.24 474.234 1440.03 461.269V457.663C1418.68 486.255 1386.01 526.953 1343.41 571.228C1333.48 581.417 1323.41 591.434 1313.31 601.25C1258.61 654.312 1198.32 701.764 1132.92 740.945C1094.64 763.87 1052.12 767.82 1008.57 763.784C962.48 759.52 917.075 750.733 870.696 748.873C804.204 746.211 738.37 757.058 674.939 776.663C632.509 789.771 591.68 806.943 548.707 818.449C507.678 829.439 465.677 836.68 423.419 840.887C352.406 847.927 280.535 844.636 210.237 832.759C183.686 828.265 156.591 822.627 129.668 815.558C82.8891 802.679 45.523 787.997 20.3739 776.778C12.8205 773.229 5.35302 769.565 -1.94281 765.673V769.279C48.3269 795.495 104.891 812.553 159.367 825.375C299.132 858.374 446.136 853.251 583.326 810.693Z" fill="black" fill-opacity="0.1"/>
<path d="M153.272 831.156C154.217 831.385 155.189 831.614 156.162 831.843C158.136 832.329 160.111 832.816 162.085 833.274C304.082 866.788 453.432 861.465 592.253 816.331C633.338 802.994 672.822 785.993 714.708 774.975C747.954 766.217 782.002 760.55 816.278 758.089C868.808 754.282 920.622 760.722 972.409 768.964C1010.35 775.003 1049.11 781.328 1087.28 773.544C1109 769.108 1128.34 759.291 1147.02 747.7C1179.78 727.351 1210.91 704.483 1240.78 680.127C1303.61 628.869 1360.09 569.74 1410.5 506.317C1420.54 493.696 1430.47 480.845 1440.06 467.766V462.414C1405.24 511.641 1364.67 557.519 1322.92 600.134C1271.28 652.852 1214.29 700.419 1152.23 740.43C1113.89 765.158 1076.38 777.236 1030.52 774.517C1022.96 774.059 1015.47 773.372 1007.94 772.542C995.498 770.968 982.594 768.936 969.118 766.789C954.612 764.471 939.449 762.067 923.426 760.035C915.701 758.976 907.948 758.003 900.194 757.259C839.91 751.392 779.684 756.429 720.831 770.567C679.202 780.584 639.976 796.726 599.634 810.75C559.293 824.774 517.692 835.077 475.605 842.289C401.388 854.968 325.368 855.941 250.665 847.183C234.757 845.323 218.906 842.976 203.113 840.143C202.283 840 201.454 839.857 200.595 839.685C198.135 839.227 195.674 838.769 193.185 838.282C191.239 837.91 189.294 837.538 187.406 837.166C186.519 836.995 185.66 836.823 184.802 836.622C181.941 836.05 179.08 835.449 176.304 834.848C88.7544 816.102 24.8086 787.596 -2 774.374V776.091C-0.998611 776.577 0.0313889 777.093 1.14722 777.636C48.7275 802.049 101.629 818.563 153.272 831.156Z" fill="black" fill-opacity="0.1"/>
<path d="M593.683 823.972C634.397 810.435 673.48 793.206 714.966 781.901C748.813 772.685 783.547 766.732 818.538 764.271C869.981 760.665 920.68 767.219 971.178 776.32C1008.06 782.96 1045.74 790.687 1083.31 785.078C1136.09 777.178 1181.7 738.255 1222.1 706.344C1291.45 651.536 1352.88 586.797 1407.1 517.107C1418.28 502.711 1429.36 488.058 1439.97 473.089V467.795C1436.71 472.546 1433.45 477.239 1430.07 481.933C1423.55 490.948 1416.28 500.736 1408.27 511.154C1381.95 545.098 1353.42 577.438 1324.24 608.119C1272.54 662.44 1215.2 711.524 1152.34 752.537C1114.95 776.921 1077.58 787.024 1033.06 782.96C990.519 779.067 948.862 768.135 906.374 763.412C849.009 757.001 791.501 761.037 735.223 773.687C694.709 782.817 656.313 797.442 617.574 812.152C575.773 828.037 532.456 839.828 488.537 848.071C413.691 862.123 336.813 863.983 261.194 855.855C192.813 848.5 125.319 832.272 60.83 808.46C39.6292 800.618 18.1994 792.118 -2.11444 781.844V785.335C49.8433 811.952 107.895 829.353 164.173 842.404C306.142 875.317 455.349 869.965 593.683 823.972Z" fill="black" fill-opacity="0.1"/>
<path d="M92.4453 829.668C118.138 837.996 147.693 846.239 180.367 853.136C237.303 865.128 294.468 871.167 350.804 871.167C363.421 871.167 376.039 870.852 388.57 870.251C437.467 867.876 485.591 860.806 532.541 849.187C550.652 844.808 568.649 839.742 586.445 833.989C627.645 820.652 666.956 802.479 708.5 790.143C741.574 780.327 775.536 773.601 809.84 770.252C810.784 770.166 811.729 770.109 812.673 770.023C829.239 768.621 844.946 768.163 859.852 768.449C872.441 768.707 885.03 769.48 897.562 770.682C897.991 770.71 898.449 770.767 898.878 770.796C898.992 770.796 899.107 770.825 899.25 770.825C929.52 773.916 956.501 779.382 981.564 784.477C1035.52 795.438 1079.53 804.339 1126.68 782.473C1154.52 770.023 1179.61 750.533 1203.87 732.073C1279.43 674.632 1345.41 604.713 1402.98 529.414C1415.62 512.871 1428.1 495.985 1439.97 478.699V473.204C1437.57 476.81 1435.14 480.416 1432.68 483.994C1426.09 493.467 1418.68 503.827 1410.53 514.818C1386.1 547.502 1359.69 578.812 1332.62 608.606C1284.04 662.125 1230.14 710.951 1170.94 752.479C1136.26 776.806 1103.56 793.377 1062.33 794.179C1037.07 793.978 1010.95 788.684 981.907 782.788C925.744 771.397 859.996 758.089 769.47 773.858C769.155 773.916 768.812 773.973 768.497 774.002C767.639 774.145 766.809 774.345 765.979 774.488C763.233 774.975 760.486 775.49 757.711 776.034C755.05 776.549 752.418 777.093 749.757 777.665C746.009 778.466 742.204 779.325 738.37 780.241C738.312 780.241 738.227 780.269 738.169 780.298C709.387 787.081 678.2 796.812 644.239 810.263C607.588 823.629 571.052 837.481 533.114 847.126C528.851 848.214 524.559 849.244 520.267 850.246C386.882 880.755 266.057 869.393 180.739 851.419C91.358 832.673 25.3522 803.709 -2 790.458V792.318C0.403333 793.463 3.09278 794.751 6.01111 796.125C33.6781 809.491 62.8614 820.423 92.4453 829.668Z" fill="black" fill-opacity="0.1"/>
<path d="M182.599 861.493C185.231 862.037 187.835 862.524 190.438 863.039C191.812 863.325 193.185 863.583 194.587 863.84C247.403 874.115 300.219 879.324 352.177 879.324C365.395 879.324 378.528 878.98 391.632 878.322C477.207 873.943 560.122 855.168 638.002 822.484C638.374 822.341 638.746 822.198 639.118 822.026C654.625 815.959 670.132 809.891 685.811 804.253C765.894 776.835 829.21 771.569 882.341 775.175C911.009 777.322 939.42 782.13 967.659 788.14C974.526 789.628 981.249 791.145 987.83 792.633C991.12 793.378 994.353 794.093 997.558 794.808C1004.74 796.411 1011.92 797.985 1019.13 799.416C1065.48 808.603 1105.62 810.664 1150.2 781.615C1169.45 769.05 1187.99 755.685 1205.73 741.775C1279.58 684.478 1343.75 614.845 1399.69 540.232C1413.51 521.801 1427.12 502.912 1440 483.593V478.871C1420.03 509.294 1391.07 550.192 1354.08 594.21C1348.3 601.021 1342.49 607.776 1336.66 614.444C1334.34 617.077 1332.02 619.71 1329.68 622.315C1280.61 677.065 1219.92 734.105 1149.28 780.155C1095.61 815.129 1048.23 804.453 988.231 790.916C907.232 772.656 806.464 749.932 637.315 820.881C461.357 894.693 293.124 882.787 182.999 859.776C167.235 856.485 152.214 852.879 137.966 849.101C115.477 843.091 93.2464 836.193 71.3017 828.466C64.2633 825.976 57.1964 823.429 50.1294 820.767C31.0172 813.44 15.5958 806.686 4.49471 801.534C2.32026 800.504 0.145819 799.416 -2.02863 798.329V801.048C48.6703 826.462 104.719 843.692 159.882 856.399C167.292 858.174 174.845 859.891 182.599 861.493Z" fill="black" fill-opacity="0.1"/>
<path d="M1340.43 618.566C1294.43 672.858 1243.07 722.8 1186.19 765.616C1150.37 792.576 1116.01 814.327 1069.86 812.524C1032.89 811.065 996.757 798.729 960.935 790.601C911.925 779.497 862.284 775.003 812.158 779.697C780.027 782.702 748.355 789.6 717.398 798.586C676.512 810.464 638.202 828.666 598.261 843.119C519.666 871.596 436.122 884.79 352.663 885.019C263.568 885.277 174.502 869.707 89.813 842.404C78.4544 838.74 67.0386 834.848 55.6514 830.755C29.7583 821.082 10.0739 812.295 -2.02863 806.543V809.033C55.4511 837.91 119.826 856.428 182.112 869.736C331.577 901.648 488.366 892.26 630.449 834.533C698.715 806.772 767.124 783.761 841.455 780.956C889.036 779.182 935.729 787.024 981.793 798.243C1016.27 806.629 1051.32 817.333 1087.2 815.529C1135.03 813.125 1173.54 780.699 1209.37 752.136C1285.1 691.747 1350.08 618.108 1406.21 539.431C1417.77 523.232 1429.13 506.747 1439.97 489.918V484.452C1429.76 500.479 1417.28 519.225 1402.61 539.717C1382.86 566.935 1361.89 593.237 1340.43 618.566Z" fill="black" fill-opacity="0.1"/>
<path d="M204.086 944.263C250.636 953.106 305.856 959.918 365.51 959.918C457.781 959.918 560.637 943.605 658.144 893.262C809.211 815.272 907.118 822.999 979.504 847.155C1003.51 855.397 1026.63 866.015 1049.66 876.805C1067.11 884.991 1085.14 893.691 1103.99 898.499C1133.03 906.313 1160.64 904.223 1191.31 879.553C1243.64 837.452 1289.48 785.392 1328.36 732.245C1331.08 728.553 1333.77 724.832 1336.46 721.112C1375.6 666.562 1410.19 608.234 1440 547.702V490.147C1431.3 504.257 1420.94 520.313 1409.07 537.742C1388.47 567.536 1366.44 596.328 1343.81 624.003C1298.09 679.899 1246.79 731.443 1189.54 775.518C1153.95 802.937 1119.9 824.974 1073.61 821.854C1036.98 819.393 1001.45 806.199 966.028 797.527C920.308 786.308 873.815 781.242 826.778 784.448C799.397 786.337 772.961 791.174 747.096 797.957C718.456 805.14 687.356 815.472 653.481 829.696C642.494 834.018 631.536 838.426 620.549 842.89C540.295 875.46 453.975 891.344 367.57 893.004C275.156 894.779 182.57 879.324 94.5911 851.419C61.9745 841.087 28.9 829.324 -1.99997 814.127V817.647C57.0247 846.783 122.802 865.443 186.604 878.665C335.411 909.518 491.341 900.045 632.337 841.516C700.66 813.154 769.298 789.285 843.916 786.594C891.439 784.877 937.989 793.12 983.739 805.198C1016.84 813.927 1050.32 825.146 1084.88 825.317C1101.42 825.403 1116.44 821.883 1130.51 816.159C1134.29 814.671 1138.12 812.925 1141.96 810.979C1142.04 810.95 1142.13 810.893 1142.22 810.864C1143.3 810.292 1144.42 809.719 1145.51 809.118C1161.64 800.532 1176.78 789.399 1191.94 777.837C1273.74 715.588 1342.81 637.083 1401.78 553.283C1414.42 535.31 1426.84 516.935 1438.66 498.218C1430.96 510.982 1422.09 525.207 1412.05 540.49C1392.22 570.283 1370.99 599.132 1349.13 626.923C1305.84 681.959 1257.29 733.018 1202.99 777.322C1167.68 806.142 1132.29 833.846 1084.79 832.129C1081.1 831.986 1077.41 831.7 1073.72 831.328C1052.55 828.866 1030.66 822.427 1006.66 815.329C1002.62 814.156 998.53 812.925 994.353 811.723C989.604 810.292 984.854 808.89 980.105 807.573C965.17 803.423 950.149 799.874 935.042 797.041C934.356 796.898 933.64 796.783 932.954 796.64C931.867 796.44 930.779 796.239 929.692 796.039C927.775 795.696 925.858 795.381 923.913 795.066C922.883 794.894 921.824 794.723 920.794 794.579C919.907 794.436 919.049 794.322 918.162 794.179C894.901 790.687 871.44 788.97 847.664 789.542C781.658 791.116 717.255 810.092 656.771 835.535C614.226 853.451 572.168 870.165 527.248 881.327C491.284 890.285 454.576 895.923 417.668 899.014C417.267 899.043 416.838 899.072 416.438 899.1C412.689 899.415 408.941 899.673 405.222 899.93C402.304 900.131 399.357 900.302 396.438 900.445C395.151 900.531 393.835 900.588 392.547 900.646C345.539 902.878 301.221 900.646 261.165 895.952C259.706 895.78 258.218 895.609 256.73 895.437C254.184 895.122 251.666 894.807 249.177 894.492C200.624 888.024 152.614 877.378 105.864 863.268C101.258 861.865 96.6225 860.434 91.9875 859.003C48.0122 844.865 15.2811 830.698 -1.99997 822.627V825.203C57.4253 854.253 123.431 872.941 187.606 886.25C273.124 903.994 361.104 908.545 447.194 897.984C449.169 897.755 451.143 897.498 453.117 897.24C454.891 897.011 456.665 896.782 458.41 896.524C461.986 896.038 465.591 895.494 469.196 894.95C470.541 894.75 471.886 894.521 473.231 894.321C476.12 893.863 478.981 893.376 481.871 892.89C483.187 892.661 484.503 892.432 485.819 892.203C489.31 891.573 492.801 890.943 496.291 890.257C498.38 889.856 500.468 889.427 502.528 889.026C503.93 888.74 505.304 888.454 506.706 888.167C550.366 879.066 593.254 865.872 634.769 848.271C702.749 819.45 770.901 795.009 845.432 791.975C893.356 790.029 940.25 798.529 986.199 811.551C1018.3 820.652 1050.43 832.329 1083.99 834.39C1092.98 834.934 1101.47 834.39 1109.63 833.016C1109.68 833.016 1109.74 832.988 1109.8 832.988C1110.49 832.873 1111.17 832.759 1111.86 832.616C1127.17 829.954 1142.56 824.058 1158.58 813.583C1166.33 808.89 1173.92 803.595 1181.53 797.985C1267.56 734.363 1339.12 651.851 1399.6 564.073C1412.3 545.641 1424.75 526.809 1436.62 507.605C1429.16 520.313 1420.63 534.251 1411.1 549.133C1393.76 575.836 1375.37 601.794 1356.46 626.923C1314.17 683.218 1266.53 735.679 1212.94 781.443C1204.47 788.684 1195.89 796.039 1187.02 803.051C1183.04 806.113 1179.04 809.176 1174.98 812.152C1151.29 829.239 1125.39 842.232 1094.92 841.946C1093.43 841.946 1091.95 841.86 1090.46 841.803C1065.88 840.515 1040.7 832.473 1012.55 823.514C1011.06 823.028 1009.57 822.57 1008.06 822.083C1003.68 820.652 999.303 819.221 994.954 817.876C986.628 815.3 978.302 812.868 969.919 810.635C951.894 805.741 932.382 801.362 910.895 798.558C897.362 796.726 883.743 795.524 869.952 795.152C808.524 793.492 747.84 808.031 690.646 829.496C649.933 844.779 611.308 864.327 569.822 877.664C555.03 882.415 540.066 886.565 524.988 890.199C524.015 890.428 523.014 890.686 522.041 890.915C518.121 891.831 514.173 892.689 510.253 893.548C508.823 893.863 507.392 894.178 505.99 894.464C502.328 895.237 498.666 895.952 495.004 896.639C493.344 896.954 491.656 897.297 489.997 897.612C486.935 898.184 483.874 898.7 480.784 899.215C478.352 899.644 475.891 900.073 473.459 900.445C472.057 900.674 470.627 900.875 469.225 901.104C389.085 913.382 313.581 910.777 249.663 902.363C248.776 902.248 247.918 902.134 247.031 902.02C243.626 901.562 240.25 901.104 236.903 900.617C196.99 894.635 157.478 885.935 118.825 874.916C114.247 873.6 109.641 872.255 105.034 870.881C54.5928 855.54 16.9692 839.456 -1.99997 830.67V833.331C57.5397 862.123 123.431 880.726 187.606 894.063C253.44 907.744 320.791 913.725 387.626 910.978C439.326 908.946 494.317 901.476 550.366 885.792C550.938 885.62 551.511 885.477 552.083 885.305C554.486 884.618 556.918 883.903 559.35 883.187C583.898 876.032 608.075 867.475 631.822 857.429C695.11 830.641 757.453 805.884 825.891 799.073C848.437 797.012 869.237 796.984 888.549 798.357C920.422 800.819 951.837 807.315 982.68 816.388C1015.07 825.919 1047.03 838.855 1080.7 843.091C1086.88 843.863 1092.98 844.15 1099.01 844.006C1112.72 843.835 1126.31 841.345 1140.21 835.564C1140.87 835.306 1141.53 835.02 1142.22 834.734C1142.39 834.676 1142.53 834.59 1142.7 834.533C1150.6 831.185 1158.27 827.035 1165.62 822.026C1257.15 759.892 1331.88 671.227 1393.85 580.529C1408.1 559.694 1421.97 538.343 1435.14 516.535C1428.84 527.496 1421.83 539.288 1414.14 551.737C1396.43 580.014 1377.54 607.49 1358.09 634.078C1317.34 689.83 1271.42 741.976 1219.67 787.739C1209.17 797.041 1198.29 806.772 1186.88 815.758C1184.65 817.504 1182.41 819.193 1180.15 820.91C1157.21 837.968 1131.94 851.19 1102.65 851.305C1095.18 851.333 1087.77 850.646 1080.42 849.473C1063.96 846.668 1047.05 841.345 1028.97 835.191C1021.96 832.759 1015.04 830.269 1008.17 827.922C968.947 814.556 929.206 804.024 887.72 801.076C830.269 797.012 772.274 807.831 718.056 826.491C678.601 840.085 641.55 859.118 602.667 874.058C562.24 889.598 520.096 900.474 477.436 907.715C453.518 911.779 429.398 914.498 405.222 916.015C403.992 916.101 402.761 916.187 401.56 916.244C400.101 916.33 398.641 916.387 397.182 916.473C393.978 916.644 390.802 916.787 387.626 916.902C386.424 916.959 385.223 916.988 384.021 917.016C380.388 917.131 376.783 917.245 373.206 917.303C372.405 917.303 371.604 917.331 370.803 917.36C366.425 917.417 362.076 917.474 357.728 917.446C356.583 917.446 355.439 917.417 354.323 917.417C351.519 917.417 348.715 917.389 345.911 917.331C343.193 917.274 340.475 917.217 337.757 917.16C336.956 917.131 336.155 917.131 335.382 917.102C266.687 915.013 198.163 903.908 132.014 886.135C123.689 883.903 115.334 881.556 106.98 879.123C55.537 863.783 17.1981 847.527 -1.99997 838.74V841.431C57.7972 870.165 123.889 888.826 188.264 902.191C333.551 932.386 486.478 925.975 624.555 868.963C663.351 852.936 700.546 834.848 740.859 822.627C770.872 813.526 801.772 807.344 833.044 804.539C881.425 800.189 929.463 806.571 975.928 820.166C1005.74 828.895 1036.64 842.261 1067.63 849.072C1088.88 854.138 1109.14 855.798 1129.77 850.532C1139.47 848.299 1149.14 844.693 1158.7 839.284C1179.38 827.578 1198.12 811.122 1216.03 795.638C1239.87 775.061 1262.41 753.109 1283.87 730.07C1323.24 687.826 1358.52 641.805 1390.7 593.924C1405.01 572.63 1418.94 550.793 1432.13 528.527C1425.81 539.688 1418.86 551.623 1411.27 564.13C1396.68 587.77 1381.32 610.895 1365.58 633.448C1326.53 689.343 1282.44 741.918 1232.6 788.541C1225.39 795.295 1217.86 802.45 1210.05 809.576C1198.26 819.679 1186.13 829.41 1173.66 838.654C1173.06 839.112 1172.43 839.513 1171.83 839.942C1155.32 850.675 1137.52 858.631 1118.21 860.635C1111.72 861.322 1105.25 861.293 1098.81 860.778C1075.35 858.631 1051.35 849.816 1024.57 839.971C999.875 830.898 972.323 820.767 940.107 814.041C931.867 812.209 923.569 810.664 915.158 809.433C861.769 801.62 807.637 807.745 755.822 821.769C718.828 831.786 683.15 846.239 648.559 862.61C610.221 880.755 570.337 894.95 529.223 905.339C495.118 913.954 460.441 919.65 425.536 922.74C424.277 922.855 423.047 922.969 421.788 923.084C419.184 923.313 416.581 923.485 413.948 923.685C411.831 923.828 409.743 923.971 407.625 924.114C405.422 924.257 403.219 924.4 401.016 924.515C398.527 924.658 396.066 924.744 393.606 924.858C391.632 924.944 389.658 925.059 387.683 925.116C385.28 925.202 382.877 925.259 380.473 925.316C375.237 925.459 370.002 925.545 364.737 925.574C364.222 925.574 363.707 925.574 363.164 925.603C291.436 925.831 219.507 916.043 150.125 898.957C149.839 898.9 149.553 898.814 149.267 898.728C76.6806 880.469 22.1764 857.744 -1.99997 846.783V849.158C-1.88552 849.215 -1.77108 849.273 -1.65663 849.33C57.8831 877.75 123.546 896.324 187.606 909.776C333.809 940.485 488.223 934.618 626.901 876.147C664.009 860.492 699.659 842.776 738.141 830.412C768.097 820.795 798.997 814.041 830.297 810.693C874.015 806.028 917.733 810.092 960.106 821.024C968.203 823.171 976.014 825.489 983.538 827.893C1020.96 840.429 1061.05 860.406 1100.61 863.153C1100.73 863.153 1100.87 863.182 1100.99 863.182C1101.99 863.239 1103.02 863.296 1104.02 863.354C1105.14 863.411 1106.22 863.44 1107.34 863.468C1107.88 863.468 1108.43 863.497 1108.97 863.497C1110.14 863.497 1111.32 863.468 1112.52 863.44C1126.59 863.096 1140.56 860.263 1154.26 853.766C1174.55 844.178 1192.06 828.38 1209.05 814.098C1234.09 793.034 1257.46 770.081 1279.69 746.126C1320 702.709 1355.83 655.171 1388.44 605.744C1403.32 583.162 1417.83 560.037 1431.47 536.397C1423.55 550.764 1414.65 566.305 1404.78 582.647C1392.99 601.851 1380.75 620.712 1368.21 639.229C1330.25 695.296 1287.3 748.215 1238.58 795.295C1224.59 808.804 1210.02 822.599 1194.6 835.077C1194.43 835.22 1194.26 835.363 1194.06 835.506C1184.85 842.919 1175.29 849.845 1165.39 855.941C1152.32 863.955 1137.69 868.935 1122.42 870.251C1092.26 872.884 1062.5 860.492 1035.01 849.73C998.96 835.649 962.967 822.227 924.628 815.758C873.986 807.201 822.458 811.58 772.789 823.743C695.939 842.575 628.331 884.962 552.626 907.171C424.678 944.721 287.087 938.911 158.394 908.345C142.057 904.452 125.634 900.216 109.24 895.551C58.112 880.411 19.487 864.47 -0.51219 855.54C-1.02719 855.311 -1.54219 855.054 -2.05719 854.825V857.859C56.5097 885.42 120.713 903.708 183.514 917.131C324.996 947.382 474.661 944.349 610.392 891.172C648.502 876.233 684.409 856.657 722.948 842.661C754.592 831.156 787.352 822.656 820.712 817.991C868.951 811.208 917.647 814.814 964.512 827.836C998.731 837.338 1030.95 852.335 1064.48 863.783C1090.69 872.741 1118.12 877.778 1145.13 869.249C1163.13 863.583 1177.95 852.02 1192.51 840.429C1218.06 820.137 1241.87 797.699 1264.5 774.202C1308.79 728.152 1347.61 676.922 1382.61 623.545C1399.57 597.644 1416.02 570.97 1431.36 543.667C1423.86 557.633 1415.51 572.63 1406.3 588.371C1396.17 605.4 1385.7 622.172 1375.02 638.657C1338.63 694.867 1297.4 748.158 1250.48 795.982C1227.56 819.364 1203.01 842.175 1176.35 861.293C1164.16 870.022 1150.34 876.347 1135.55 879.066C1115.98 882.672 1096.35 878.837 1077.55 872.655C1077.07 872.484 1076.61 872.34 1076.12 872.169C1075.64 871.997 1075.15 871.825 1074.66 871.682C1062.5 867.475 1049.74 862.152 1036.1 856.456C1014.84 847.584 991.435 837.796 964.684 830.24C959.505 828.723 954.298 827.264 949.033 825.976C902.082 814.556 853.558 814.528 806.092 822.885C773.189 828.695 741.145 838.798 710.073 850.904C671.849 865.786 635.971 885.849 597.603 900.474C463.932 951.389 315.784 950.531 177.449 920.68C169.695 919.02 161.942 917.245 154.159 915.414C79.37 897.097 22.7773 873.915 -1.99997 862.867V865.5C57.4539 893.319 122.63 911.722 186.347 925.23C327.886 955.196 477.866 952.334 613.311 898.127C650.963 883.073 686.412 863.382 724.465 849.187C754.85 837.853 786.293 829.267 818.338 824.201C866.547 816.56 915.53 819.221 962.595 832.043C966.772 833.188 970.892 834.419 974.984 835.707C975.327 835.821 975.699 835.936 976.042 836.05C997.329 842.804 1017.9 851.448 1038.56 859.948C1049.49 864.498 1059.99 868.849 1070.17 872.484C1093.32 880.869 1117.7 886.622 1142.24 881.127C1156.66 877.893 1169.83 870.595 1181.61 861.865C1209.17 841.517 1234.37 817.561 1258.2 793.034C1303.78 746.068 1343.38 693.436 1378.92 638.6C1396.88 610.838 1414.19 582.247 1430.3 552.94C1427.67 557.948 1424.92 563.1 1422.09 568.337C1408.33 593.437 1393.76 618.079 1378.77 642.12C1342.92 699.589 1302.21 754.168 1255.54 803.309C1232.71 827.378 1208.16 850.475 1181.67 870.48C1169.17 879.925 1154.83 886.822 1139.35 889.455C1134.26 890.314 1129.2 890.657 1124.13 890.543C1098.58 889.827 1072.6 878.322 1041.88 864.699C992.265 842.719 931.065 815.587 841.999 824.344C834.846 825.003 827.665 825.861 820.541 826.92C790.213 831.471 760.572 839.942 731.76 850.246C720.917 854.138 710.359 858.488 699.888 863.125C686.412 868.877 672.478 875.346 658.058 882.558C646.414 888.11 634.74 893.634 622.895 898.814C610.764 904.137 598.49 908.974 586.073 913.382C584.728 913.868 583.383 914.355 582.039 914.813C580.036 915.5 578.033 916.158 576.03 916.845C438.869 962.322 300.849 952.534 202.484 933.702C104.09 914.87 27.8986 884.103 -1.99997 870.938V873.542C41.26 893.433 87.3811 908.43 133.674 920.365C154.875 926.003 177.735 931.384 201.969 936.02C225.773 940.571 251.895 944.606 279.762 947.468C280.392 947.526 280.992 947.583 281.622 947.64C284.54 947.926 287.459 948.212 290.406 948.47C292.637 948.67 294.869 948.871 297.072 949.042C298.159 949.128 299.246 949.214 300.334 949.3C397.812 957.027 496.406 947.754 589.163 915.128C600.292 911.207 611.165 906.742 621.894 902.02C631.736 897.812 641.578 893.319 651.363 888.454C667.843 880.612 684.266 872.627 701.061 865.386C733.363 851.448 766.924 840.257 801.371 832.93C801.686 832.873 802.029 832.787 802.344 832.73C803.603 832.473 804.862 832.244 806.092 831.986C826.635 827.979 845.833 825.861 863.829 825.203C864.058 825.203 864.316 825.174 864.545 825.174C866.347 825.117 868.121 825.06 869.924 825.031C871.325 825.003 872.699 825.003 874.101 825.003C875.932 825.003 877.763 825.003 879.565 825.031C881.196 825.06 882.799 825.089 884.429 825.117C885.602 825.146 886.804 825.174 887.977 825.232C890.094 825.317 892.212 825.403 894.329 825.518C896.103 825.632 897.848 825.747 899.593 825.861C899.851 825.89 900.137 825.89 900.394 825.919C958.818 830.383 1003.25 850.074 1040.93 866.788C1073.15 881.07 1101.27 893.519 1129.51 892.632C1130.31 892.632 1131.09 892.632 1131.89 892.603C1171.26 891.001 1202.04 859.376 1228.99 834.333C1277.8 788.941 1319.78 736.423 1357.29 681.473C1381.49 646.012 1404.12 609.092 1424.75 571.056C1376.17 664.272 1296.52 791.746 1189.82 877.578C1150.54 909.175 1117.44 903.365 1077.67 886.593C1071.55 883.932 1065.51 881.155 1059.67 878.436C1052.72 875.231 1045.77 871.997 1038.79 868.82C960.935 832.558 853.844 789.428 657.028 891.029C497.092 973.599 322.707 964.24 204.601 941.83C105.32 923.055 28.1275 892.146 -1.99997 878.98V882.014C44.5503 903.107 94.3336 918.676 144.06 930.897C162.914 935.734 182.999 940.285 204.086 944.263Z" fill="black" fill-opacity="0.1"/>
<path d="M208.206 960.691C254.613 969.334 309.403 975.945 368.285 975.945C461.729 975.945 565.473 959.26 662.178 907.4C663.866 906.513 665.526 905.626 667.185 904.767C692.849 892.317 718.485 879.81 745.036 869.364C846.377 831.242 919.278 837.195 976.357 855.655C998.387 862.924 1019.67 872.512 1040.39 883.073C1062.79 894.464 1084.91 907.658 1108.83 915.757C1137.69 925.746 1164.93 925.917 1195.15 902.678C1210.45 891.688 1224.19 877.807 1237.35 864.527C1241.35 860.549 1245.33 856.514 1249.25 852.421C1269.51 831.414 1288.36 809.004 1306.21 785.936C1359.26 717.362 1403.23 641.433 1439.97 562.613V548.046C1434.54 559.408 1428.58 571.485 1422.09 584.107C1410.7 605.944 1398.77 627.466 1386.5 648.588C1353.37 705.571 1315.71 760.092 1272.4 809.805C1249.91 835.621 1225.56 859.833 1199.49 882.014C1186.68 892.918 1173.17 902.506 1156.81 907.228C1150.31 909.117 1143.76 909.947 1137.24 910.005C1136.52 910.005 1135.78 909.976 1135.06 909.976C1134.6 909.976 1134.15 909.947 1133.69 909.947C1108.65 908.774 1083.28 896.21 1053.18 881.299C985.312 847.67 895.817 803.366 739.428 861.722C723.807 867.389 708.357 873.8 693.107 880.812C655.312 898.184 619.462 918.104 580.007 931.87C568.935 935.734 557.719 939.169 546.418 942.317C543.757 943.061 541.067 943.805 538.407 944.521C537.949 944.635 537.52 944.749 537.062 944.864C415.808 976.089 295.556 966.787 206.632 950.101C106.579 931.241 28.385 900.188 -2 887.051V889.799C4.63778 892.661 13.3642 896.296 23.9789 900.417C49.7289 910.777 76.2228 919.678 102.974 927.434C133.302 936.45 168.122 945.379 206.174 952.506C243.083 959.432 285.37 965.098 330.862 967.13C331.205 967.159 331.548 967.159 331.892 967.188C334.581 967.302 337.271 967.417 339.989 967.503C423.676 970.45 507.535 960.376 587.046 932.643C598.604 928.608 609.849 923.971 620.95 919.049C633.195 913.811 645.355 908.058 657.429 901.791C668.816 896.181 680.203 890.514 691.734 885.019C724.322 869.507 758.254 856.714 793.189 847.67C814.704 842.118 836.649 838.368 858.679 836.766C858.708 836.766 858.737 836.766 858.737 836.766C861.855 836.537 864.945 836.365 868.064 836.222C868.264 836.222 868.464 836.222 868.693 836.193C871.011 836.079 873.328 836.022 875.674 835.993C877.019 835.964 878.364 835.936 879.68 835.936C880.138 835.936 880.624 835.936 881.082 835.936C955.385 835.707 1008.29 861.923 1052.09 883.617C1098.04 906.399 1135.55 924.944 1177.49 901.733C1185.05 897.669 1192.28 892.661 1199.21 886.937C1251.74 843.52 1296.17 790.744 1335.4 735.25C1369.93 686.395 1400.75 634.507 1427.87 580.816C1399.94 637.913 1361.38 707.345 1312.82 772.714C1312.62 772.971 1312.42 773.258 1312.22 773.515C1309.45 777.236 1306.64 780.928 1303.81 784.62C1301.58 787.539 1299.32 790.43 1297.06 793.32C1293.85 797.384 1290.62 801.42 1287.36 805.427C1286.01 807.087 1284.67 808.718 1283.33 810.349C1257.26 841.774 1228.76 871.425 1197.89 897.269C1165.13 924.715 1136.87 923.971 1105.28 911.922C1097.52 908.917 1089.97 905.397 1082.76 901.876C1077.78 899.444 1072.83 896.954 1067.88 894.435C1064.91 892.89 1061.88 891.316 1058.79 889.713C979.905 848.528 871.869 792.147 660.948 905.254C650.505 910.548 640.062 915.786 629.476 920.766C480.927 988.138 320.447 979.065 208.721 958.287C116.393 941.115 42.29 913.582 6.89805 898.957C4.35167 897.898 1.77667 896.839 -0.741111 895.752C-1.17028 895.58 -1.59944 895.38 -2 895.208V898.299C43.0625 918.333 90.9861 933.387 138.938 945.408C160.511 950.874 183.715 956.14 208.206 960.691Z" fill="black" fill-opacity="0.1"/>
<path d="M567.075 955.682C573.713 953.622 580.236 951.332 586.731 948.957C612.881 939.712 638.832 928.35 664.21 914.469C664.238 914.441 664.267 914.441 664.295 914.412C699.659 896.982 734.793 879.066 772.445 866.617C778.711 864.556 785.006 862.61 791.357 860.835C791.586 860.778 791.815 860.721 792.044 860.635C836.878 848.099 883.8 842.976 930.093 849.645C967.859 855.083 1003.37 869.135 1037.07 886.565C1062.53 899.73 1087.11 915.872 1114.21 925.574C1121.73 928.264 1129.31 930.153 1136.87 931.126C1148.88 932.815 1160.84 931.985 1173.12 927.52C1175.89 926.547 1178.64 925.402 1181.38 924.057C1199.18 915.385 1213.71 900.56 1227.88 887.108C1252.34 863.898 1274.68 838.511 1295.63 812.124C1353.97 738.627 1401.09 655.944 1439.97 570.312V562.728C1426.72 591.978 1410.39 625.463 1391.1 660.609C1388.93 664.587 1386.73 668.508 1384.52 672.457C1373.71 691.69 1362.03 711.295 1349.5 730.928C1348.19 732.989 1346.87 735.078 1345.53 737.139C1343.41 740.43 1341.23 743.693 1339.06 746.984C1335.45 752.422 1331.82 757.831 1328.1 763.183C1327.79 763.641 1327.47 764.07 1327.16 764.528C1313.14 784.706 1298.37 804.368 1282.81 823.371C1260.75 850.332 1236.75 875.746 1210.82 899.043C1198.01 910.577 1184.62 921.367 1167.91 926.49C1142.59 934.246 1116.84 924.515 1094.18 913.382C1065.62 899.387 1038.64 882.529 1009.49 869.736C1000.08 865.615 990.605 862.066 981.078 859.004C922.74 839.37 847.807 833.245 742.89 874.401C741.174 875.059 739.428 875.718 737.712 876.433C736.481 876.92 735.28 877.464 734.049 877.979C731.303 879.124 728.527 880.268 725.724 881.47C725.094 881.757 724.465 882.014 723.835 882.272C704.523 890.629 684.237 900.503 662.894 912.18C658.831 914.383 654.768 916.501 650.705 918.591C645.155 921.395 639.575 924.143 633.939 926.805C632.68 927.406 631.364 927.949 630.105 928.55C533.915 972.54 432.059 983.988 341.734 980.839C331.176 980.467 320.647 979.895 310.147 979.151C304.253 978.722 298.331 978.235 292.437 977.691C291.264 977.577 290.091 977.462 288.918 977.348C284.597 976.947 280.277 976.461 275.957 976.003C270.578 975.402 265.285 974.772 260.049 974.085C259.448 973.999 258.847 973.942 258.247 973.856C241.652 971.681 225.773 969.105 210.781 966.358C158.937 956.827 112.731 944.005 75.765 932.013C53.5914 924.715 31.7039 916.73 10.1883 908.03C6.09693 906.37 2.03415 904.71 -2.02863 902.964V906.627C53.2194 931.012 112.702 947.955 171.24 961.177C300.963 990.427 439.04 995.464 567.075 955.682Z" fill="black" fill-opacity="0.1"/>
<path d="M128.295 958.144C153.988 965.041 182.198 971.624 212.297 977.09C218.22 978.178 224.285 979.208 230.465 980.238C342.421 998.756 458.496 997.84 567.333 964.24C581.266 959.947 594.828 954.824 608.161 949.186C625.413 942.231 642.494 934.303 659.346 925.288C695.939 907.057 732.075 887.824 770.872 874.229C820.798 856.742 874.044 847.756 926.831 853.909C927.604 853.995 928.348 854.109 929.12 854.195C929.749 854.281 930.379 854.367 930.98 854.453C988.631 862.581 1031.78 887.423 1068.57 908.602C1101.04 927.291 1129.14 943.462 1157.87 941.63C1165.1 941.286 1172.37 939.913 1179.55 937.136C1196.38 930.697 1209.71 917.904 1222.67 905.855C1247.16 883.13 1269.45 858.088 1290.31 832.043C1351.71 755.399 1400.23 668.193 1440 578.183V570.369C1431.3 590.089 1421.29 611.582 1409.99 634.164C1406.32 641.433 1402.63 648.645 1398.89 655.858C1368.44 714.386 1333.62 770.768 1293.11 822.856C1272.6 849.273 1250.28 874.287 1226.25 897.526C1212.34 910.978 1197.98 925.03 1180.13 933.101C1163.27 940.743 1145.76 940.027 1128.88 935.248C1110.54 929.638 1091.46 918.648 1069.89 906.227C1026.14 881.041 973.439 850.704 898.334 849.015C897.276 848.986 896.217 848.958 895.159 848.958C894.043 848.958 892.898 848.958 891.783 848.958C852.471 848.872 813.274 856.828 775.908 868.935C758.77 874.487 742.175 881.27 725.895 888.625C712.448 894.55 698.572 901.218 684.152 908.745C647.987 926.891 612.137 945.722 573.512 958.659C561.324 962.751 548.993 966.358 536.547 969.534C535.488 969.792 534.401 970.107 533.342 970.365C531.368 970.851 529.366 971.309 527.363 971.796C523.844 972.625 520.324 973.455 516.834 974.228C516.319 974.343 515.804 974.457 515.26 974.572C405.136 998.241 295.87 989.569 212.755 974.429C110.127 955.74 28.9858 924.315 -2.11444 911.207V914.154C0.346115 915.185 3.06417 916.301 6.06834 917.532C45.5231 934.246 86.8089 947.325 128.295 958.144Z" fill="black" fill-opacity="0.1"/>
<path d="M0.0886112 923.17C33.9356 937.652 69.2131 949.5 104.891 959.46C136.993 968.79 174.044 978.006 214.329 985.276C260.536 993.604 314.668 999.958 372.434 999.958C467.709 999.958 572.797 982.671 668.244 928.608C671.706 926.661 675.139 924.744 678.544 922.884C685.668 919.106 692.764 915.328 699.916 911.607C881.854 819.078 982.022 862.982 1055.15 905.74C1064.22 911.121 1073.26 916.616 1082.33 921.996C1126.42 948.384 1162.84 966.901 1205.3 933.96C1220.55 923.141 1234.06 908.774 1246.39 895.179C1259.15 881.814 1271.42 867.79 1283.18 853.279C1348.9 773.544 1399 680.442 1440.03 585.967V578.326C1395.71 681.272 1318.26 830.555 1210.08 926.375C1163.59 967.76 1126.62 945.436 1075.47 914.584C996.127 866.731 887.491 801.191 666.871 926.175C514.288 1012.64 336.87 1004.54 214.901 982.557C111.443 963.896 29.3292 932.357 -2 919.277V922.311C-1.31333 922.597 -0.626667 922.884 0.0886112 923.17Z" fill="black" fill-opacity="0.1"/>
<path d="M1440 586.196C1396.08 690.746 1320.12 840.229 1214.12 936.163C1167.99 977.892 1131.46 954.824 1080.87 922.941C1001.42 872.827 892.612 804.167 668.845 933.244C517.664 1020.45 339.645 1012.64 216.932 990.713C112.616 972.053 29.5294 940.399 -2 927.348V930.439C30.445 943.805 112.988 975.03 216.331 993.49C262.481 1001.73 316.384 1008 373.778 1008C469.654 1008 575.201 990.542 670.247 935.705C892.498 807.487 1000.48 875.603 1079.33 925.345C1129.05 956.713 1168.31 981.469 1216.03 938.281C1320.32 843.921 1395.6 697.987 1440 593.523V586.196Z" fill="black" fill-opacity="0.1"/>
</svg>
