<svg width="246" height="164" viewBox="0 0 246 164" fill="none" xmlns="http://www.w3.org/2000/svg">
<g clip-path="url(#clip0)">
<path d="M35.885 62.9149L35.73 62.97C35.7813 62.9506 35.833 62.9322 35.885 62.9149Z" fill="url(#paint0_linear)"/>
<path d="M42.12 63.67L42.26 63.75L42.12 63.67Z" fill="#404040"/>
<path d="M36 62.82L35.64 62.96L35.85 62.88L36 62.82Z" fill="#404040"/>
<path d="M28.4762 94.5203C28.4642 94.5302 28.4521 94.5402 28.44 94.55L28.4762 94.5203Z" fill="#0246AF"/>
<path d="M22.21 90.56C22.2347 91.4404 22.0991 92.318 21.81 93.15C20.81 95.79 18.23 96.61 15.13 94.88C13.0342 93.5458 11.2833 91.7354 10.0199 89.5962C8.75654 87.4569 8.01646 85.0495 7.86 82.57C7.86 78.77 9.97 76.79 12.95 77.48C13.6522 77.6325 14.3268 77.8922 14.95 78.25C17.0434 79.5859 18.7919 81.397 20.0535 83.536C21.315 85.675 22.0539 88.0816 22.21 90.56V90.56Z" fill="#FFA24B"/>
<path d="M22.21 90.56C22.2347 91.4404 22.0991 92.318 21.81 93.15C21.1078 92.9975 20.4332 92.7378 19.81 92.38C17.7134 91.0458 15.9614 89.2355 14.6964 87.0965C13.4314 84.9574 12.6891 82.55 12.53 80.07C12.5053 79.1896 12.6409 78.312 12.93 77.48C13.6322 77.6325 14.3068 77.8922 14.93 78.25C17.0271 79.5836 18.7796 81.3938 20.0446 83.5329C21.3097 85.6721 22.0516 88.0798 22.21 90.56V90.56Z" fill="#FF7A00"/>
<path d="M22.33 87.08L23.43 89C24.26 90.44 24.25 92 23.43 92.46L20.82 87.94V89.75C20.82 91.1 19.82 91.65 18.69 90.97V86.72L17.57 87.35C17.3287 87.4586 17.0632 87.5019 16.7999 87.4756C16.5367 87.4493 16.285 87.3542 16.07 87.2C15.4435 86.8098 14.9272 86.2659 14.57 85.62L17.19 84.12L15.62 83.21C15.0009 82.8078 14.486 82.2646 14.1175 81.6249C13.749 80.9852 13.5373 80.2673 13.5 79.53L17.2 81.67L16.09 79.75C15.26 78.32 15.27 76.75 16.09 76.29L18.7 80.82V79C18.7 77.65 19.7 77.1 20.83 77.78V82L21.94 81.37C22.1823 81.2585 22.4499 81.2136 22.7154 81.24C22.9808 81.2663 23.2344 81.363 23.45 81.52C24.1024 81.9115 24.6377 82.471 25 83.14L22.38 84.64L23.95 85.54C24.5544 85.9516 25.0545 86.4986 25.4104 87.1375C25.7662 87.7763 25.9681 88.4894 26 89.22L22.33 87.08Z" fill="url(#paint1_linear)"/>
<path d="M19.76 82.47C20.2417 82.783 20.643 83.205 20.9314 83.7018C21.2198 84.1987 21.3872 84.7565 21.42 85.33C21.42 86.39 20.67 86.8 19.75 86.27C19.2698 85.9587 18.87 85.5382 18.5832 85.0429C18.2965 84.5476 18.1309 83.9915 18.1 83.42C18.11 82.37 18.85 82 19.76 82.47Z" fill="#FF7A00"/>
<path d="M19.76 83.38C20.0099 83.5438 20.2179 83.7639 20.3673 84.0227C20.5166 84.2815 20.6032 84.5717 20.62 84.87C20.62 85.43 20.24 85.65 19.75 85.37C19.4993 85.2046 19.291 84.9828 19.1416 84.7223C18.9922 84.4618 18.9061 84.1699 18.89 83.87C18.89 83.33 19.29 83.11 19.76 83.38Z" fill="url(#paint2_linear)"/>
<path d="M30.68 89.08C30.68 88.91 30.68 88.75 30.68 88.58C30.68 88.43 30.68 88.27 30.68 88.12C30.68 87.95 30.68 87.79 30.68 87.62V87.56C30.6751 87.5369 30.6751 87.5131 30.68 87.49C30.6757 87.4635 30.6757 87.4365 30.68 87.41V87.3C30.68 87.3 30.68 87.23 30.68 87.19C30.6847 87.1703 30.6847 87.1497 30.68 87.13V87.13C30.68 87.13 30.68 87.07 30.68 87.04C30.68 87.01 30.68 86.96 30.68 86.91V86.74C30.6757 86.7135 30.6757 86.6865 30.68 86.66V86.66C30.6751 86.6302 30.6751 86.5998 30.68 86.57V86.41V86.25V86.15C30.6753 86.1135 30.6753 86.0765 30.68 86.04C30.6584 85.9611 30.6417 85.881 30.63 85.8V85.64C30.63 85.64 30.63 85.64 30.63 85.56C30.63 85.48 30.63 85.46 30.63 85.41V85.26V85.13V85.02C30.5898 84.8696 30.5898 84.8696 30.5498 84.7196C30.55 84.72 30.55 84.72 30.55 84.64C30.55 84.56 30.55 84.49 30.48 84.41L30 84C30.003 83.9567 30.003 83.9133 30 83.87C29.9779 83.7853 29.9512 83.7018 29.92 83.62C29.9247 83.5902 29.9247 83.5598 29.92 83.53V83.43C29.8989 83.3816 29.8821 83.3314 29.87 83.28C29.87 83.28 29.87 83.28 29.87 83.28C29.8489 83.2316 29.8321 83.1814 29.82 83.13C29.7807 83.0389 29.7473 82.9454 29.72 82.85C29.7012 82.7786 29.6778 82.7084 29.65 82.64C29.65 82.58 29.6 82.51 29.58 82.44C29.559 82.3985 29.5422 82.3549 29.53 82.31L29.44 82.1C29.4294 82.0514 29.4126 82.0043 29.39 81.96L29.13 81.36L29.08 81.26L28.9 80.88C28.82 80.72 28.75 80.56 28.67 80.41C28.61 80.29 28.55 80.17 28.48 80.05C28.3899 79.8615 28.2897 79.6779 28.18 79.5C28.06 79.29 27.95 79.08 27.82 78.87C27.7829 78.8122 27.7495 78.7521 27.72 78.69C27.7361 78.7287 27.7562 78.7655 27.78 78.8L27 77.83C26.77 77.49 26.53 77.16 26.29 76.83L26.05 76.54C25.9823 76.4392 25.9089 76.3423 25.83 76.25V76.25C25.8009 76.2187 25.7742 76.1853 25.75 76.15C25.6579 76.0479 25.5711 75.9411 25.49 75.83L25.18 75.49V75.42L25.06 75.3C24.96 75.19 24.86 75.07 24.75 74.96L24.63 74.84L24.58 74.77L24.37 74.57L24.24 74.43L24.14 74.33L24.02 74.22L23.82 74.04L23.71 74L23.57 73.88L23.48 73.8L23.36 73.69L23.22 73.57L23.11 73.48L22.97 73.38L22.81 73.24L22.69 73.15H22.61L22.41 73L22.3 72.92L22.21 72.86L22 72.56H21.92L21.83 72.49L21.46 72.26L20.96 71.97L20.62 71.79L20.33 71.65L20 71.45H19.93L19.73 71.36L19.6 71.3H19.53H19.41L19.2 71.22L19 71H18.87H18.72L18.46 70.92H18.39H18.27H18.2H18.07H17.97H17.79H17.57H17.47H17.41H17.27H15.57H15.49H15.23L14.89 71.03H14.94L14.67 71.13C14.41 71.25 14.13 71.38 13.78 71.57H13.7H13.63L13.25 71.81L13.16 71.87L12.99 71.99L12.91 72.05L12.6 72.28L12.12 72.67L11.86 72.91C11.765 72.9877 11.6748 73.0712 11.59 73.16L11.17 73.57L11.12 73.63C10.99 73.77 10.84 73.92 10.73 74.05L10.53 74.28L10.31 74.54L9.85 75.13L9.47 75.66L9 76.19L8.85 76.46L8.59 76.92L8.34 77.47L8.22 77.75L8.12 77.98L7.89 78.64C7.86529 78.7221 7.84526 78.8056 7.83 78.89C7.83 78.89 7.83 78.99 7.83 79.04C7.83 79.09 7.76 79.32 7.74 79.45C7.73437 79.5032 7.73437 79.5568 7.74 79.61C7.70025 79.768 7.6702 79.9283 7.65 80.09C7.65 80.17 7.65 80.24 7.65 80.33C7.65 80.42 7.65 80.53 7.65 80.63C7.65 80.73 7.65 80.93 7.65 81.09V81.87C7.65 82.13 7.65 82.47 7.65 82.72V82.91C7.65 82.91 7.65 82.99 7.65 83.03L7.7 83.53L7.84 84.34L8.03 85.14V85.27C8.03128 85.2933 8.03128 85.3167 8.03 85.34C8.09 85.54 8.15 85.76 8.2 85.94L8.26 86.11C8.32 86.28 8.37 86.43 8.42 86.59L8.47 86.72C8.46606 86.7599 8.46606 86.8001 8.47 86.84C8.71 87.48 8.93 87.98 9.07 88.26H9C9.11 88.49 9.26 88.79 9.38 89.01L9.57 89.35L9.67 89.54L9.79 89.74L9.86 89.86C10.11 90.28 10.37 90.67 10.65 91.06L10.71 91.15C10.85 91.35 11.06 91.62 11.21 91.82L11.74 92.46L12.04 92.79L12.27 93.04L12.85 93.62L13.48 94.17C13.6763 94.346 13.8834 94.5096 14.1 94.66V94.66C14.31 94.82 14.59 95.01 14.8 95.15C15.01 95.29 15.19 95.4 15.42 95.53C15.8799 95.7969 16.3617 96.0244 16.86 96.21V96.21C17.1 96.3 17.33 96.38 17.57 96.45H17.64L18.36 96.63C18.6 96.68 18.88 96.72 19.15 96.76H19.37H19.46H19.96H21.03C22.0867 96.7328 23.1368 96.5852 24.16 96.32L24.41 96.26L25.06 96.07L25.63 95.87C25.87 95.78 26.08 95.7 26.28 95.61L26.74 95.39H26.79H26.84C27.0771 95.273 27.3075 95.1428 27.53 95L27.72 94.89L28.19 94.54C28.357 94.4195 28.5111 94.2821 28.65 94.13V94.13L28.71 94.06L28.77 93.98L28.83 93.91L28.88 93.84C28.9169 93.789 28.9503 93.7355 28.98 93.68L29.06 93.57C29.0581 93.5467 29.0581 93.5233 29.06 93.5V93.44L29.11 93.35V93.29C29.1246 93.2557 29.1413 93.2223 29.16 93.19V93.12L29.22 93.02C29.2385 92.9842 29.2552 92.9475 29.27 92.91V92.85C29.27 92.85 29.27 92.76 29.27 92.72C29.2664 92.6935 29.2664 92.6665 29.27 92.64C29.2657 92.6202 29.2657 92.5998 29.27 92.58V92.5C29.2657 92.4802 29.2657 92.4598 29.27 92.44V92.44C29.27 92.37 29.32 92.31 29.34 92.24V92.15C29.3445 92.0867 29.3445 92.0233 29.34 91.96C29.3443 91.9402 29.3443 91.9198 29.34 91.9V91.9C29.34 91.9 29.34 91.82 29.34 91.78L29.4 91.54C29.4033 91.5168 29.4033 91.4932 29.4 91.47L29.46 91.17C29.4656 91.1168 29.4656 91.0632 29.46 91.01C29.4648 90.9167 29.4648 90.8233 29.46 90.73C29.4648 90.6835 29.4648 90.6365 29.46 90.59V90.59C29.46 90.51 29.46 90.43 29.46 90.35V90.16V90.1V89.9C29.941 89.758 30.3669 89.4718 30.68 89.08V89.08ZM7.86 82.57C7.86 78.9 9.86 76.94 12.65 77.42C13.65 77.76 14.41 78.04 15 78.3C17.0779 79.6353 18.8124 81.4409 20.0632 83.5707C21.314 85.7005 22.046 88.0948 22.2 90.56C22.26 95.15 19.09 97.08 15.13 94.87C11.17 92.66 7.92 87.16 7.86 82.57Z" fill="#C1C1C1"/>
<path d="M84.17 72.39L50.41 92L4.93 52.61C-2.27 47.24 -1.49 39.61 6.79 34.8C8.05992 34.1535 9.46293 33.8114 10.8879 33.801C12.3129 33.7906 13.7208 34.1121 15 34.74L84.17 72.39Z" fill="#FFD600"/>
<path d="M84.17 72.39L84.16 76.89L50.4 96.51L50.41 92.01L84.17 72.39Z" fill="url(#paint3_linear)"/>
<path d="M4.93 52.61C1.63 50.15 0 47.21 0 44.29V48.79C0 51.71 1.62 54.65 4.92 57.11L50.4 96.51V92L4.93 52.61Z" fill="#D2B100"/>
<path d="M242.12 11.5C239.072 6.23119 234.06 2.38539 228.182 0.805256C222.304 -0.774879 216.039 0.0395172 210.76 3.07L143.61 41.79C140.67 43.51 138.85 47.17 138.85 52.36C138.85 62.75 146.1 75.36 155.06 80.48C159.55 83.06 163.61 83.29 166.55 81.57L233.7 42.86C238.967 39.8105 242.811 34.7976 244.389 28.9196C245.967 23.0416 245.151 16.7776 242.12 11.5V11.5Z" fill="url(#paint4_linear)"/>
<path opacity="0.6" d="M220.22 24.12C201.109 22.956 182.076 27.4349 165.49 37L148.16 47C146.09 48.21 144.81 50.79 144.81 54.45C144.81 61.77 149.92 70.64 156.23 74.27C159.4 76.09 162.23 76.27 164.33 75.04L181.66 65.04C198.248 55.4768 211.658 41.2465 220.22 24.12V24.12Z" fill="#FFA24B"/>
<path d="M152.207 91.1496C158.811 87.3121 158.796 74.9609 152.172 63.5625C145.549 52.1641 134.826 46.0348 128.222 49.8723C121.618 53.7098 121.633 66.061 128.257 77.4594C134.88 88.8578 145.603 94.9871 152.207 91.1496Z" fill="#828282"/>
<path d="M171.81 71C171.81 70.73 171.81 70.46 171.81 70.18V69.81C171.81 69.75 171.81 69.7 171.81 69.65C171.805 69.5534 171.805 69.4566 171.81 69.36C171.81 69.09 171.75 68.81 171.71 68.53C171.67 68.25 171.64 67.97 171.59 67.68V67.62C171.59 67.36 171.5 67.09 171.45 66.83C171.4 66.57 171.34 66.24 171.28 65.94C171.28 65.84 171.28 65.73 171.2 65.63C171.12 65.53 171.2 65.5 171.2 65.44L171.11 65.06C171.03 64.76 170.96 64.46 170.87 64.16C170.78 63.86 170.75 63.72 170.68 63.5C170.684 63.4601 170.684 63.4199 170.68 63.38V63.26C170.59 62.97 170.5 62.68 170.4 62.39L170.1 61.52L170.04 61.36C170.04 61.36 170.04 61.28 170.04 61.23L169.84 60.69L169.51 59.87L169.25 59.28V59.18L169.2 59.06C169.08 58.79 168.96 58.52 168.83 58.25L168.4 57.35C168.373 57.3088 168.349 57.2653 168.33 57.22L168.23 57.04L167.87 56.33L167.38 55.47C167.3 55.32 167.22 55.17 167.13 55.02C167.102 54.9602 167.069 54.9032 167.03 54.85C166.89 54.59 166.72 54.35 166.57 54.1C166.42 53.85 166.12 53.37 165.89 53.02L165.78 52.84C165.43 52.33 165.08 51.84 164.71 51.32C164.46 50.98 164.21 50.65 163.95 50.32L163.33 49.54C163.11 49.28 162.9 49.02 162.68 48.77L162.02 48.04C161.981 48.0059 161.944 47.9691 161.91 47.93L161.79 47.81C161.64 47.64 161.48 47.48 161.32 47.32C161.16 47.16 160.85 46.84 160.61 46.61L160.39 46.4L160.22 46.25L159.86 45.92C159.62 45.69 159.36 45.47 159.11 45.26L158.78 44.99L158.61 44.85L158.36 44.65C158.11 44.45 157.87 44.26 157.62 44.08L157.07 43.69L156.97 43.62L156.88 43.56C156.64 43.39 156.4 43.24 156.16 43.08L155.45 42.64L155.28 42.55C155.1 42.4367 154.92 42.3367 154.74 42.25L154.05 41.89L153.6 41.67H153.49L153.36 41.61L152.68 41.32L152 41.07H151.88H151.78C151.63 41.011 151.476 40.9609 151.32 40.92C151.09 40.84 150.85 40.78 150.62 40.72L150 40.5H149.85H149.64L148.9 40.38H148.45H148.29H148.14H147.35H147.01H146.47C146.14 40.38 145.81 40.46 145.47 40.53L145.27 40.59C144.931 40.6537 144.597 40.7405 144.27 40.85H144.2C143.749 41.009 143.314 41.2099 142.9 41.45L128.22 49.97C128.638 49.738 129.072 49.5374 129.52 49.37C129.847 49.2535 130.181 49.1566 130.52 49.08L130.73 49.02C131.146 48.9409 131.567 48.8874 131.99 48.86H132.26C132.686 48.8352 133.114 48.8352 133.54 48.86H133.7C134.175 48.9006 134.646 48.9741 135.11 49.08H135.25C135.754 49.1934 136.251 49.3336 136.74 49.5H136.85C137.37 49.68 137.91 49.89 138.46 50.14L138.56 50.19C139.12 50.45 139.68 50.74 140.24 51.07C140.8 51.4 141.38 51.76 141.94 52.14L142.04 52.21C142.56 52.58 143.04 52.96 143.57 53.37L143.74 53.51C144.233 53.91 144.713 54.33 145.18 54.77L145.35 54.92C145.83 55.37 146.3 55.84 146.75 56.33L146.87 56.45C147.36 56.97 147.87 57.51 148.3 58.07C148.773 58.6367 149.233 59.2267 149.68 59.84C150.09 60.39 150.48 60.96 150.86 61.54C151.1 61.89 151.32 62.26 151.54 62.62C151.76 62.98 151.93 63.23 152.11 63.54C152.19 63.69 152.27 63.84 152.36 63.99C152.65 64.51 152.94 64.99 153.21 65.56L153.3 65.73C153.62 66.38 153.93 67.04 154.22 67.73C154.239 67.7623 154.255 67.7957 154.27 67.83C154.55 68.4967 154.81 69.1633 155.05 69.83C155.053 69.8733 155.053 69.9167 155.05 69.96C155.3 70.63 155.52 71.3 155.73 71.96V72.08C155.93 72.73 156.1 73.38 156.25 74.02C156.255 74.0832 156.255 74.1468 156.25 74.21C156.41 74.87 156.54 75.54 156.64 76.21C156.75 76.87 156.83 77.54 156.88 78.21C156.885 78.2666 156.885 78.3234 156.88 78.38C156.94 79.04 156.96 79.69 156.96 80.38C156.961 81.0011 156.931 81.6219 156.87 82.24C156.87 82.3 156.87 82.35 156.87 82.4C156.81 82.95 156.74 83.48 156.64 83.98C156.635 84.0499 156.635 84.1201 156.64 84.19C156.54 84.67 156.41 85.19 156.27 85.59C156.249 85.6751 156.223 85.7587 156.19 85.84C156.05 86.26 155.89 86.67 155.72 87.05L155.66 87.18C155.466 87.607 155.238 88.0182 154.98 88.41C154.98 88.47 154.91 88.51 154.88 88.56C154.676 88.8619 154.456 89.1523 154.22 89.43C154.139 89.5281 154.052 89.6215 153.96 89.71C153.763 89.9291 153.552 90.1361 153.33 90.33L153.05 90.57C152.734 90.8181 152.4 91.0421 152.05 91.24V91.24L166.73 82.71C167.08 82.5084 167.414 82.2811 167.73 82.03L168 81.79C168.225 81.5963 168.439 81.3892 168.64 81.17L168.9 80.89C169.136 80.6123 169.356 80.3219 169.56 80.02L169.66 79.88C169.899 79.5081 170.113 79.1205 170.3 78.72C170.3 78.72 170.3 78.72 170.3 78.72L170.36 78.59C170.47 78.33 170.59 78.08 170.69 77.8C170.69 77.67 170.78 77.52 170.83 77.38C170.88 77.24 170.88 77.22 170.91 77.13C170.94 77.04 170.91 76.99 170.98 76.91C171.07 76.63 171.14 76.34 171.21 76.05L171.27 75.73C171.275 75.6601 171.275 75.5899 171.27 75.52C171.27 75.42 171.32 75.32 171.34 75.22L171.46 74.41C171.46 74.26 171.46 74.1 171.46 73.94C171.465 73.8868 171.465 73.8332 171.46 73.78C171.465 73.7168 171.465 73.6532 171.46 73.59C171.46 73.33 171.46 73.06 171.51 72.79C171.56 72.52 171.51 72.25 171.51 71.97C171.82 71.5 171.82 71.25 171.81 71Z" fill="#C1C1C1"/>
<path d="M162.25 80.74C162.25 80.41 162.25 80.07 162.25 79.74C162.25 79.59 162.25 79.44 162.25 79.29C162.25 79.14 162.25 79.15 162.25 79.09V78.73C162.25 78.39 162.18 78.05 162.13 77.73C162.08 77.41 162.04 77.04 161.98 76.73V76.6C161.98 76.27 161.88 75.94 161.81 75.6C161.74 75.26 161.67 74.87 161.59 74.51L161.5 74.13C161.488 74.0524 161.471 73.9756 161.45 73.9C161.45 73.74 161.38 73.58 161.34 73.42C161.25 73.05 161.15 72.69 161.05 72.32C160.95 71.95 160.89 71.78 160.82 71.52C160.82 71.52 160.82 71.42 160.77 71.37C160.72 71.32 160.77 71.27 160.77 71.22C160.66 70.86 160.54 70.5 160.42 70.15C160.3 69.8 160.18 69.44 160.05 69.09C160.031 69.0218 160.008 68.955 159.98 68.89L159.92 68.73C159.84 68.51 159.76 68.29 159.67 68.07C159.58 67.85 159.4 67.39 159.26 67.07C159.12 66.75 159.06 66.59 158.96 66.35L158.9 66.22L158.84 66.07C158.69 65.73 158.54 65.4 158.38 65.07C158.22 64.74 158.03 64.34 157.85 63.98L157.77 63.82C157.729 63.7521 157.693 63.682 157.66 63.61L157.21 62.74C157.02 62.38 156.81 62.02 156.61 61.67C156.51 61.49 156.41 61.31 156.3 61.13L156 60.9C155.82 60.59 155.62 60.29 155.43 59.98C155.24 59.67 154.88 59.09 154.59 58.66C154.55 58.5845 154.507 58.5111 154.46 58.44C154.04 57.81 153.6 57.18 153.14 56.57C152.84 56.16 152.53 55.75 152.22 55.35C151.91 54.95 151.71 54.71 151.45 54.35C151.18 54.04 150.92 53.72 150.64 53.41C150.36 53.1 150.11 52.81 149.84 52.52L149.7 52.37L149.56 52.23C149.373 52.0167 149.183 51.8167 148.99 51.63C148.7 51.33 148.4 51.04 148.11 50.76L147.83 50.5L147.63 50.31L147.2 49.91C146.887 49.63 146.577 49.36 146.27 49.1C146.13 48.99 145.99 48.88 145.86 48.76L145.65 48.6L145.34 48.35C145.04 48.11 144.74 47.87 144.43 47.65L143.76 47.17L143.64 47.09L143.53 47.01L142.64 46.42L141.76 45.88L141.56 45.76L140.89 45.39L140 45L139.46 44.74L139.32 44.68L139.16 44.6L138.33 44.25L137.49 43.93H137.35H137.22L136.65 43.74L135.79 43.51L135.39 43.41H135.21C135.121 43.3852 135.031 43.3652 134.94 43.35C134.64 43.29 134.33 43.24 134.03 43.2C133.73 43.16 133.67 43.2 133.48 43.14H133.29H133.11H132.11H131.69H131.37H131.03C130.62 43.14 130.22 43.24 129.83 43.31L129.58 43.38C129.181 43.4654 128.787 43.5722 128.4 43.7H128.31C127.762 43.9058 127.23 44.1532 126.72 44.44V44.44L108.72 54.92C109.227 54.6272 109.759 54.3796 110.31 54.18C110.728 54.0297 111.156 53.9061 111.59 53.81L111.83 53.75C112.344 53.6428 112.866 53.5759 113.39 53.55H113.71C114.236 53.5153 114.764 53.5153 115.29 53.55H115.49C116.068 53.6046 116.642 53.6914 117.21 53.81H117.39C117.99 53.95 118.6 54.12 119.22 54.32H119.35C120.031 54.545 120.699 54.8088 121.35 55.11L121.49 55.17C122.17 55.48 122.85 55.84 123.55 56.24C124.25 56.64 124.95 57.09 125.63 57.56L125.76 57.65C126.39 58.1 127.02 58.57 127.64 59.07L127.85 59.24C128.45 59.73 129.04 60.24 129.62 60.79L129.83 60.98C130.41 61.53 130.99 62.11 131.55 62.7L131.69 62.85C132.29 63.49 132.88 64.16 133.45 64.85C134.03 65.56 134.6 66.28 135.15 67.02C135.65 67.7 136.15 68.4 136.6 69.1L137.43 70.43L138.13 71.56L138.43 72.11C138.79 72.75 139.15 73.39 139.48 74.04L139.59 74.26C139.99 75.05 140.37 75.85 140.72 76.66L140.78 76.79C141.12 77.59 141.453 78.39 141.78 79.19L141.84 79.35C142.15 80.17 142.42 81 142.67 81.82C142.67 81.87 142.67 81.92 142.67 81.98C142.9 82.77 143.12 83.57 143.3 84.36L143.36 84.58C143.54 85.41 143.71 86.23 143.84 87.04C143.97 87.86 144.07 88.67 144.14 89.48C144.14 89.55 144.14 89.62 144.14 89.68C144.21 90.49 144.24 91.3 144.24 92.09C144.24 92.88 144.24 93.64 144.13 94.37C144.13 94.44 144.13 94.5 144.13 94.57C144.06 95.24 143.97 95.89 143.85 96.51C143.828 96.5921 143.811 96.6756 143.8 96.76C143.67 97.36 143.52 97.93 143.35 98.49C143.35 98.59 143.28 98.69 143.25 98.79C143.08 99.31 142.88 99.79 142.67 100.28C142.651 100.335 142.628 100.389 142.6 100.44C142.356 100.966 142.075 101.474 141.76 101.96L141.64 102.13C141.393 102.503 141.122 102.861 140.83 103.2C140.73 103.32 140.62 103.44 140.51 103.55C140.26 103.82 140 104.07 139.73 104.31C139.62 104.4 139.51 104.51 139.39 104.6C139.009 104.906 138.608 105.186 138.19 105.44L156.2 95C156.62 94.7499 157.021 94.4692 157.4 94.16C157.52 94.07 157.63 93.97 157.74 93.87C158.01 93.63 158.27 93.38 158.52 93.11C158.63 93 158.73 92.88 158.84 92.76C159.128 92.4175 159.399 92.0604 159.65 91.69L159.77 91.52C160.063 91.0636 160.327 90.5893 160.56 90.1C160.556 90.0802 160.556 90.0598 160.56 90.04C160.579 89.9849 160.603 89.9314 160.63 89.88C160.77 89.56 160.91 89.25 161.04 88.88C161.1 88.71 161.15 88.54 161.21 88.36C161.27 88.18 161.28 88.16 161.31 88.06L161.4 87.79C161.5 87.44 161.59 87.09 161.68 86.72C161.68 86.59 161.73 86.46 161.75 86.33C161.755 86.2467 161.755 86.1633 161.75 86.08C161.75 85.96 161.81 85.83 161.83 85.7C161.89 85.38 161.94 85.0467 161.98 84.7L162.04 84.13C162.035 84.0634 162.035 83.9966 162.04 83.93C162.045 83.8534 162.045 83.7766 162.04 83.7C162.04 83.38 162.04 83.05 162.1 82.7C162.16 82.35 162.1 82.03 162.1 81.7V81.64C162.27 81.37 162.26 81.06 162.25 80.74Z" fill="#9B9B9B"/>
<path d="M123.51 56.25C135 62.88 144.28 79 144.24 92.16C144.2 105.32 134.86 110.69 123.37 104.06C111.88 97.43 102.61 81.34 102.64 68.14C102.67 54.94 112 49.62 123.51 56.25Z" fill="url(#paint5_linear)"/>
<path d="M149.57 60.68C152.81 58.81 155.44 60.31 155.45 64.03L155.6 117.94C155.496 119.97 154.912 121.946 153.897 123.707C152.882 125.467 151.464 126.963 149.76 128.07L102.84 155.16C99.6 157 97 155.53 97 151.8L96.8 97.89C96.9071 95.8611 97.493 93.8865 98.5098 92.1275C99.5266 90.3686 100.945 88.8754 102.65 87.77L149.57 60.68Z" fill="#FF7A00"/>
<path d="M102.64 94.63L113.27 88.5V100.77L102.64 106.91V94.63Z" fill="url(#paint6_linear)"/>
<path d="M115.31 87.52L125.94 81.39L125.93 93.66L115.31 99.8V87.52Z" fill="url(#paint7_linear)"/>
<path d="M153.55 60.17L153.36 60.09H153.26L153 60H152.9H152.84H152.73H152.42H152.32C152.17 59.99 152.02 59.99 151.87 60H151.77L151.48 60.05H151.43H151.22L150.96 60.13C150.82 60.1677 150.683 60.2144 150.55 60.27L150.39 60.33C150.25 60.39 150.1 60.45 149.95 60.53L149.58 60.72L102.66 87.82L102.18 88.11L101.75 88.44L101.59 88.55L101.23 88.85L100.84 89.21L100.64 89.41L100.26 89.81L100.04 90.07L99.81 90.34L99.54 90.68L99.39 90.9L99.09 91.32L98.98 91.49C98.85 91.69 98.73 91.89 98.61 92.09C98.5986 92.1249 98.5779 92.1561 98.55 92.18L98.27 92.72L98.18 92.9C98.09 93.09 98 93.28 97.92 93.47V93.54C97.83 93.75 97.75 93.96 97.67 94.19C97.6391 94.2503 97.6156 94.3141 97.6 94.38C97.54 94.53 97.49 94.69 97.44 94.85C97.39 95.01 97.44 95 97.37 95.09L97.25 95.51L97.18 95.81C97.1753 95.8465 97.1753 95.8835 97.18 95.92C97.1255 96.1405 97.0854 96.3643 97.06 96.59V96.84C97.06 96.97 97.06 97.1 97.06 97.23C97.0503 97.4232 97.0503 97.6168 97.06 97.81V97.87L97 151.8C96.9895 152 96.9895 152.2 97 152.4C96.9896 152.536 96.9896 152.674 97 152.81C97 152.94 97 153.05 97.07 153.17C97.11 153.374 97.1669 153.575 97.24 153.77C97.2689 153.858 97.3023 153.945 97.34 154.03C97.3719 154.114 97.4121 154.194 97.46 154.27C97.5985 154.541 97.7809 154.788 98 155C98.0699 155.087 98.1506 155.164 98.24 155.23L98.33 155.31C98.4337 155.392 98.5441 155.466 98.66 155.53L98.55 155.48L40.4 121.7C39.9941 121.448 39.6518 121.106 39.4 120.7C38.9069 119.855 38.6642 118.888 38.7 117.91L38.53 64C38.5345 63.6656 38.5579 63.3318 38.6 63C38.6049 62.9602 38.6049 62.9198 38.6 62.88C38.6 62.88 38.6 62.8 38.6 62.75C38.6 62.7 38.6 62.44 38.69 62.29C38.6796 62.217 38.6796 62.143 38.69 62.07C38.6956 62.0335 38.6956 61.9964 38.69 61.96L38.77 61.67L38.83 61.39L38.88 61.24L39 61C39.0107 60.9309 39.0309 60.8636 39.06 60.8C39.06 60.71 39.12 60.62 39.16 60.53C39.2 60.44 39.16 60.41 39.22 60.34C39.23 60.3074 39.23 60.2726 39.22 60.24L39.44 59.72C39.4364 59.6935 39.4364 59.6665 39.44 59.64C39.5 59.5 39.55 59.36 39.62 59.23L39.7 59.07L39.79 58.9C39.8139 58.8403 39.8441 58.7833 39.88 58.73C39.94 58.61 40.01 58.49 40.08 58.37C40.0836 58.3368 40.0836 58.3032 40.08 58.27V58.27L40.39 57.77L40.44 57.7L40.54 57.53C40.6044 57.4465 40.6645 57.3597 40.72 57.27L40.84 57.11L41 56.89L41.11 56.74L41.26 56.55L41.49 56.28L41.59 56.15C41.6358 56.1092 41.6792 56.0658 41.72 56.02C41.8422 55.8761 41.9724 55.7392 42.11 55.61L42.23 55.47L42.3 55.41C42.5611 55.1564 42.8347 54.9161 43.12 54.69L43.28 54.57C43.5722 54.3475 43.876 54.1405 44.19 53.95L91.3 26.82C91.5395 26.6828 91.7865 26.5592 92.04 26.45H92.12L92.27 26.4L92.68 26.26H92.82H92.94L93.18 26.21H93.33H93.49H94.16H94.51H94.62H94.79L94.94 26.27H95.04H95.1C95.1997 26.314 95.2965 26.3641 95.39 26.42L116.79 38.85L125.02 43.64L153.55 60.17Z" fill="#FFA24B"/>
<path d="M70 81.16C70 80.97 70 80.72 70 80.42V80.23C70 80.09 70 79.97 70.07 79.85L70.19 79.32C70.2106 79.2011 70.2407 79.0841 70.28 78.97L70.34 78.75C70.34 78.62 70.43 78.49 70.48 78.34L70.54 78.18C70.62 77.99 70.69 77.79 70.75 77.65L70.81 77.53C70.88 77.36 70.96 77.18 71.05 77.01L71.13 76.86C71.21 76.7 71.3 76.53 71.4 76.36V76.27L71.78 75.66L71.84 75.57C71.93 75.45 72.02 75.31 72.11 75.18L72.4 75L72.65 74.7L72.85 74.45L73.04 74.23L73.39 73.86L73.55 73.7C73.78 73.48 74.01 73.27 74.24 73.09L74.35 73.01C74.5606 72.8418 74.7846 72.6913 75.02 72.56L125.1 43.63L116.87 38.84L70.87 65.39C70.3303 65.697 69.8064 66.0307 69.3 66.39L69.1 66.55C68.66 66.9 68.22 67.29 67.78 67.71L67.48 68.01L66.88 68.64C66.77 68.78 66.66 68.9 66.54 69.03L66.19 69.46L65.79 69.97L65.55 70.3C65.4 70.5 65.26 70.72 65.07 70.98L64.95 71.18C64.76 71.48 64.57 71.78 64.4 72.07L64.31 72.23C64.16 72.49 64.02 72.75 63.88 73.02L63.75 73.28C63.61 73.56 63.47 73.85 63.36 74.11L63.29 74.25C63.15 74.57 63.03 74.89 62.9 75.25L62.8 75.53C62.71 75.77 62.63 76.01 62.56 76.24C62.49 76.47 62.47 76.5 62.44 76.63C62.41 76.76 62.32 77.07 62.25 77.33C62.18 77.59 62.18 77.61 62.15 77.75C62.12 77.89 62.09 78.03 62.07 78.16V78.27L61.95 79.03V79.33V79.43C61.8825 80.0009 61.8457 80.5751 61.84 81.15V88.31L56.61 85.31L65.92 101.45L75.31 96.1L70.12 93.1L70 81.16Z" fill="url(#paint8_linear)"/>
<path d="M163.22 140.65C163.22 140.42 163.22 140.12 163.22 139.9V139.75V139.61C163.22 139.61 163.22 139.53 163.22 139.48V139.3C163.208 139.185 163.188 139.072 163.16 138.96C163.164 138.927 163.164 138.893 163.16 138.86C163.16 138.86 163.16 138.92 163.16 138.95C163.167 138.857 163.167 138.763 163.16 138.67L163.07 138.28C163.075 138.24 163.075 138.2 163.07 138.16V138.05L162.94 137.59C162.944 137.55 162.944 137.51 162.94 137.47V137.47C162.94 137.47 162.94 137.39 162.94 137.34L162.89 137.19L162.8 136.91C162.788 136.859 162.771 136.808 162.75 136.76C162.367 135.744 161.863 134.777 161.25 133.88L161.14 133.72C161.01 133.53 160.88 133.34 160.73 133.16L160.61 133L160.45 132.81L160.3 132.62L160.2 132.51L160.09 132.38L159.78 132.05L159.37 131.65L159.09 131.4L158.9 131.24L158.8 131.16L158.7 131.08L158.41 130.85L158.04 130.59L157.83 130.45L157.63 130.33L157.47 130.23L157.32 130.15L156.85 129.9L156.57 129.77L156.35 129.68C156.138 129.579 155.917 129.498 155.69 129.44L155 129L155.18 129.05L155 129L154.82 128.94L154.3 128.83H154.16H154.28H154.22H154.13H153.84H153.75H153.44H152.54H152.19H151.98L151.69 128.88C151.48 128.88 151.21 129 151.01 129.06L150.56 129.22C150.812 129.124 151.074 129.054 151.34 129.01H151.76C151.927 129 152.093 129 152.26 129.01H152.41H152.57H152.73L153.23 129.11H153.3L153.54 129.19L153.79 129.27C154.021 129.344 154.249 129.43 154.47 129.53L154.64 129.61C154.797 129.679 154.951 129.755 155.1 129.84C155.486 130.058 155.857 130.301 156.21 130.57V130.57L156.32 130.65L156.43 130.74L156.59 130.86L156.73 130.98C156.93 131.15 157.14 131.32 157.34 131.51L157.7 131.86C157.94 132.1 158.17 132.36 158.4 132.62L158.7 132.97C159.003 133.331 159.287 133.709 159.55 134.1C159.75 134.39 159.94 134.69 160.13 134.99C160.32 135.29 160.3 135.29 160.38 135.45C160.46 135.61 160.54 135.71 160.61 135.85L160.79 136.22C160.95 136.54 161.09 136.86 161.23 137.22C161.3 137.39 161.37 137.56 161.43 137.73L161.49 137.9C161.59 138.17 161.68 138.43 161.76 138.7C161.76 138.82 161.84 138.94 161.87 139.06C161.9 139.18 161.87 139.26 161.95 139.36C162.02 139.63 162.07 139.89 162.12 140.15C162.114 140.183 162.114 140.217 162.12 140.25C162.125 140.293 162.125 140.337 162.12 140.38C162.125 140.417 162.125 140.453 162.12 140.49V140.61C162.115 140.636 162.115 140.664 162.12 140.69C162.12 140.69 162.12 140.75 162.12 140.79C162.181 141.231 162.218 141.675 162.23 142.12C162.23 142.26 162.23 142.39 162.23 142.52C162.234 142.547 162.234 142.574 162.23 142.6C162.23 142.88 162.18 143.14 162.15 143.4C162.15 143.5 162.15 143.59 162.15 143.68L162.09 143.96C162.096 143.993 162.096 144.027 162.09 144.06C162.047 144.24 161.994 144.417 161.93 144.59L161.87 144.76L161.81 144.93C161.81 144.99 161.81 145.05 161.74 145.1C161.654 145.276 161.557 145.446 161.45 145.61V145.61C161.45 145.61 161.45 145.66 161.45 145.69L161.39 145.77L161.34 145.84C161.163 146.071 160.962 146.282 160.74 146.47C160.9 146.33 161.11 146.15 161.26 146L161.59 145.66L161.67 145.55C161.712 145.508 161.749 145.461 161.78 145.41L162.05 145.07L162.17 144.88C162.168 144.857 162.168 144.833 162.17 144.81V144.75L162.23 144.66C162.243 144.625 162.259 144.591 162.28 144.56L162.35 144.43C162.35 144.48 162.35 144.52 162.28 144.56L162.48 144.17L162.61 143.9L162.8 143.43L162.87 143.2V143.13C162.87 143.07 162.87 143.01 162.87 142.93V142.82C162.87 142.73 162.87 142.63 162.94 142.51V142.43V142.37V142.2C162.94 142.08 162.94 141.97 162.94 141.9V142.13V141.99V141.86C162.94 141.64 162.99 141.35 163.01 141.14V140.55L163.22 140.65Z" fill="url(#paint9_linear)"/>
<path d="M157 129.92L157.14 130L157 129.92Z" fill="#404040"/>
<path d="M150.88 129.07L150.52 129.21L150.73 129.13L150.88 129.07Z" fill="#404040"/>
<path d="M162.32 142.11C162.32 142 162.32 141.88 162.32 141.76V141.4C162.325 141.367 162.325 141.333 162.32 141.3V141.22C162.315 141.157 162.315 141.093 162.32 141.03C162.32 140.91 162.32 140.79 162.27 140.66C162.22 140.53 162.27 140.5 162.27 140.42V140.35C162.264 140.327 162.264 140.303 162.27 140.28C162.27 140.16 162.27 140.03 162.19 139.9L162.1 139.49C162.1 139.35 162.04 139.22 162 139.08C161.96 138.94 161.91 138.79 161.87 138.64C161.87 138.51 161.79 138.38 161.74 138.25L161.59 137.82L161.38 137.29C161.351 137.218 161.317 137.148 161.28 137.08L161.19 136.87C161.19 136.81 161.14 136.75 161.11 136.68L160.93 136.33C160.93 136.23 160.83 136.12 160.77 136.02V135.93C160.736 135.879 160.706 135.825 160.68 135.77C160.51 135.47 160.33 135.17 160.15 134.87L159.98 134.61C159.76 134.265 159.523 133.931 159.27 133.61C159.18 133.48 159.08 133.37 158.99 133.25L158.72 132.92L158.25 132.41L158.19 132.34L158.08 132.23L157.84 131.98L157.53 131.7V131.64L157.16 131.31L156.92 131.12H156.86L156.53 130.87L156.22 130.65L155.9 130.45L155.59 130.26L155.49 130.21L155.28 130.1L154.98 129.94H154.89H154.82L154.68 129.88L154.38 129.76H154.28H154.21L154.08 129.71L153.78 129.62H153.69H153.61H153.47C153.369 129.59 153.265 129.57 153.16 129.56H153.03H152.83H152.57H152.05H151.89H151.7H151.6L151.32 129.63H151.18L151.03 129.69L130.03 137.69L130.43 137.56C130.56 137.56 130.68 137.49 130.81 137.47L131.2 137.41H131.42C131.626 137.395 131.834 137.395 132.04 137.41H132.13L132.75 137.47H132.86C133.089 137.503 133.316 137.55 133.54 137.61H133.65C133.891 137.67 134.128 137.743 134.36 137.83H134.46L135.2 138.13H135.29C135.56 138.26 135.83 138.39 136.11 138.55C136.453 138.736 136.787 138.94 137.11 139.16V139.16C137.43 139.37 137.74 139.6 138.05 139.84L138.13 139.9L138.99 140.64L139.07 140.72L139.82 141.44L139.97 141.6C140.23 141.87 140.48 142.15 140.73 142.45L141.09 142.89L141.52 143.43C141.86 143.88 142.18 144.34 142.52 144.81L142.75 145.17C143.003 145.57 143.243 145.98 143.47 146.4L143.66 146.74L143.86 147.15C143.99 147.4 144.11 147.64 144.22 147.89C144.27 147.99 144.31 148.08 144.35 148.18C144.5 148.52 144.65 148.87 144.78 149.18V149.24C144.92 149.61 145.04 149.99 145.16 150.36V150.43C145.28 150.83 145.39 151.23 145.49 151.63C145.59 152.02 145.67 152.42 145.74 152.81C145.74 152.81 145.74 152.81 145.74 152.89C145.8 153.26 145.85 153.63 145.89 153.99V154.09C145.93 154.469 145.95 154.849 145.95 155.23C145.971 155.563 145.971 155.897 145.95 156.23V156.3C145.95 156.6 145.89 156.89 145.85 157.18C145.85 157.18 145.85 157.18 145.85 157.23C145.813 157.483 145.76 157.734 145.69 157.98C145.69 157.98 145.69 158.06 145.69 158.1C145.62 158.34 145.55 158.56 145.47 158.79C145.437 158.854 145.411 158.921 145.39 158.99L145.2 159.41C145.143 159.53 145.079 159.647 145.01 159.76C145.01 159.86 144.9 159.96 144.84 160.06C144.78 160.16 144.62 160.37 144.51 160.51L144.35 160.71C144.179 160.908 143.991 161.092 143.79 161.26L161.13 146.97C161.274 146.844 161.411 146.711 161.54 146.57L161.65 146.42L161.9 146.09C161.9 146.09 161.9 146.09 161.9 146.01C161.9 145.93 161.95 145.91 161.98 145.87C162.01 145.83 162.07 145.7 162.11 145.61L162.17 145.5C162.17 145.44 162.22 145.37 162.25 145.3L162.31 145.15V145.08C162.35 144.96 162.39 144.83 162.43 144.69C162.43 144.69 162.43 144.63 162.43 144.6L162.49 144.36C162.49 144.26 162.49 144.15 162.54 144.05V143.99C162.54 143.88 162.54 143.76 162.59 143.64C162.595 143.55 162.595 143.46 162.59 143.37V143.28C162.59 143.17 162.59 143.05 162.59 142.93V142.57L162.32 142.11Z" fill="#9B9B9B"/>
<path d="M137.09 156.81C137.115 157.69 136.979 158.568 136.69 159.4C135.74 162.04 133.12 162.86 130.02 161.13C127.923 159.798 126.17 157.988 124.907 155.848C123.643 153.708 122.904 151.3 122.75 148.82C122.75 145.02 124.86 143.04 127.84 143.73C128.542 143.884 129.216 144.143 129.84 144.5C131.932 145.837 133.678 147.649 134.938 149.788C136.198 151.927 136.935 154.332 137.09 156.81V156.81Z" fill="#FFA24B"/>
<path d="M137.09 156.81C137.115 157.69 136.979 158.568 136.69 159.4C135.988 159.246 135.314 158.987 134.69 158.63C132.592 157.298 130.838 155.488 129.573 153.348C128.308 151.209 127.567 148.801 127.41 146.32C127.385 145.44 127.521 144.562 127.81 143.73C128.512 143.884 129.186 144.143 129.81 144.5C131.907 145.834 133.66 147.644 134.925 149.783C136.19 151.922 136.932 154.33 137.09 156.81V156.81Z" fill="#FF7A00"/>
<path d="M137.21 153.33L138.32 155.25C139.14 156.69 139.14 158.25 138.32 158.71L135.71 154.2V156C135.71 157.35 134.71 157.9 133.58 157.22V153L132.46 153.63C132.217 153.738 131.95 153.782 131.685 153.755C131.42 153.729 131.167 153.634 130.95 153.48C130.329 153.086 129.817 152.543 129.46 151.9L132.08 150.4L130.51 149.49C129.89 149.088 129.373 148.546 129.003 147.906C128.633 147.266 128.419 146.548 128.38 145.81L132.08 147.95L131 146C130.17 144.58 130.18 143 131 142.54L133.61 147.07V145.26C133.61 143.91 134.61 143.36 135.74 144.04V148.29L136.85 147.66C137.092 147.548 137.36 147.504 137.625 147.53C137.891 147.556 138.144 147.653 138.36 147.81C138.989 148.197 139.506 148.742 139.86 149.39L137.24 150.89L138.81 151.79C139.428 152.193 139.942 152.737 140.31 153.376C140.679 154.016 140.891 154.733 140.93 155.47L137.21 153.33Z" fill="url(#paint10_linear)"/>
<path d="M134.65 148.72C135.132 149.033 135.533 149.455 135.821 149.952C136.11 150.449 136.277 151.006 136.31 151.58C136.31 152.64 135.56 153.06 134.64 152.52C134.16 152.209 133.76 151.788 133.473 151.293C133.186 150.798 133.021 150.241 132.99 149.67C133 148.62 133.74 148.2 134.65 148.72Z" fill="#FF7A00"/>
<path d="M134.65 149.63C134.9 149.794 135.108 150.014 135.257 150.273C135.407 150.531 135.493 150.822 135.51 151.12C135.51 151.68 135.12 151.9 134.64 151.62C134.389 151.455 134.181 151.233 134.032 150.972C133.882 150.712 133.796 150.42 133.78 150.12C133.78 149.58 134.17 149.36 134.65 149.63Z" fill="url(#paint11_linear)"/>
<path d="M145.57 155.33C145.57 155.16 145.57 155 145.57 154.83C145.57 154.68 145.57 154.52 145.57 154.37C145.57 154.2 145.57 154.04 145.57 153.87V153.81C145.575 153.787 145.575 153.763 145.57 153.74V153.55C145.57 153.55 145.57 153.48 145.57 153.44V153.38C145.57 153.38 145.57 153.32 145.57 153.29C145.57 153.26 145.57 153.21 145.57 153.16V153C145.566 152.974 145.566 152.946 145.57 152.92C145.575 152.89 145.575 152.86 145.57 152.83V152.67C145.575 152.617 145.575 152.563 145.57 152.51V152.41C145.575 152.373 145.575 152.337 145.57 152.3C145.558 152.219 145.542 152.139 145.52 152.06C145.52 152.01 145.52 151.95 145.52 151.9C145.52 151.9 145.52 151.85 145.52 151.82V151.67C145.525 151.62 145.525 151.57 145.52 151.52C145.52 151.52 145.52 151.43 145.52 151.39C145.524 151.353 145.524 151.317 145.52 151.28V151.28C145.525 151.23 145.525 151.18 145.52 151.13V150.98C145.516 150.954 145.516 150.926 145.52 150.9V150.9C145.52 150.82 145.47 150.75 145.45 150.67L145.39 150.45C145.384 150.407 145.384 150.363 145.39 150.32C145.39 150.24 145.34 150.15 145.31 150.07C145.28 149.99 145.31 150.01 145.31 149.98C145.308 149.947 145.308 149.913 145.31 149.88C145.314 149.83 145.314 149.78 145.31 149.73V149.73L145.25 149.58C145.25 149.49 145.19 149.4 145.15 149.3C145.15 149.23 145.15 149.16 145.08 149.09C145.08 149.03 145.03 148.96 145 148.89C145.004 148.847 145.004 148.803 145 148.76L144.91 148.55V148.41C144.83 148.21 144.75 148.01 144.66 147.81C144.641 147.778 144.625 147.744 144.61 147.71C144.61 147.71 144.61 147.71 144.61 147.66L144.42 147.28C144.35 147.12 144.28 146.96 144.2 146.81C144.14 146.68 144.08 146.56 144.01 146.44L143.71 145.89L143.35 145.26L143.24 145.08L143.3 145.19C143.12 144.89 142.93 144.59 142.74 144.3C142.52 143.96 142.28 143.63 142.03 143.3C141.96 143.2 141.88 143.11 141.8 143.01L141.58 142.72L141.49 142.62L141.23 142.3L140.93 141.96V141.89L140.82 141.77L140.51 141.43L140.39 141.31L140.34 141.24L140.13 141.04L140 140.9L139.89 140.8L139.78 140.69L139.58 140.51L139.42 140.36L139.28 140.24L139.19 140.16L139.07 140.05L138.93 139.93L138.82 139.84L138.69 139.74L138.52 139.6L138.41 139.51H138.36L138.29 139.46L138.09 139.31L137.98 139.23L137.9 139.17L137.78 139.09L137.7 139.04L137.62 138.97L137.24 138.74L136.74 138.45L136.39 138.27L136.1 138.13L135.97 138.07H135.9L135.7 137.98L135.56 137.92H135.49L135.37 137.87L135.16 137.79L135.01 137.74L134.88 137.69H134.83H134.69L134.42 137.61H134.36H134.23H133H132.86H132.77H132.58H132.36H132.27H132.21H132.07H130.37H130.29H130.03L129.69 137.72H129.74L129.47 137.82C129.21 137.94 128.92 138.07 128.58 138.26L128.49 138.31H128.43L128.05 138.55L128 138L127.83 138.12L127.75 138.18L127.44 138.41L126.96 138.8L126.7 139.04C126.603 139.115 126.512 139.199 126.43 139.29L126.01 139.7L125.95 139.76L125.56 140.18L125.36 140.41L125.15 140.66L124.68 141.25L124.31 141.78C124.19 141.95 124.06 142.17 123.94 142.36L123.79 142.63L123.53 143.09C123.45 143.25 123.36 143.45 123.28 143.64L123.16 143.92C123.122 143.995 123.089 144.072 123.06 144.15L122.83 144.81C122.83 144.9 122.83 144.97 122.76 145.06C122.765 145.11 122.765 145.16 122.76 145.21C122.76 145.35 122.69 145.49 122.66 145.62V145.78C122.66 145.94 122.6 146.1 122.58 146.26C122.56 146.42 122.58 146.41 122.58 146.5C122.575 146.6 122.575 146.7 122.58 146.8C122.58 146.95 122.58 147.1 122.58 147.26V147.74C122.575 147.79 122.575 147.84 122.58 147.89V148.04C122.58 148.3 122.58 148.64 122.58 148.89V149.08C122.58 149.08 122.58 149.16 122.58 149.2L122.64 149.7C122.64 149.94 122.74 150.27 122.78 150.51L122.96 151.31V151.44C122.957 151.463 122.957 151.487 122.96 151.51C122.96 151.71 123.08 151.93 123.13 152.11L123.19 152.28C123.24 152.45 123.3 152.61 123.35 152.76V152.89C123.35 152.89 123.35 152.97 123.35 153.01C123.529 153.493 123.733 153.967 123.96 154.43V154.43L124.33 155.18L124.53 155.52L124.63 155.71L124.75 155.91L124.82 156.03C125.07 156.45 125.32 156.84 125.6 157.23L125.66 157.32L126.17 157.99L126.7 158.63C126.78 158.73 126.89 158.84 127 158.96L127.23 159.21L127.81 159.79C127.99 159.96 128.25 160.18 128.44 160.34C128.635 160.514 128.838 160.677 129.05 160.83V160.83C129.25 160.99 129.54 161.18 129.75 161.32C129.949 161.459 130.156 161.585 130.37 161.7C130.829 161.969 131.311 162.196 131.81 162.38V162.38C132.04 162.47 132.28 162.55 132.52 162.62H132.59L133.31 162.8C133.54 162.8 133.83 162.89 134.1 162.93H134.32H134.41H134.9H136C137.06 162.903 138.114 162.756 139.14 162.49L139.38 162.43L140.04 162.24L140.61 162.04C140.85 161.95 141.07 161.87 141.27 161.78C141.428 161.717 141.581 161.643 141.73 161.56H141.78C142.021 161.445 142.255 161.315 142.48 161.17L142.66 161.06L143.14 160.71C143.305 160.587 143.459 160.45 143.6 160.3V160.3L143.65 160.23L143.71 160.15L143.77 160.08L143.82 160.03V159.98L143.88 159.91C143.91 159.854 143.943 159.801 143.98 159.75L144.05 159.64C144.048 159.617 144.048 159.593 144.05 159.57V159.52C144.063 159.488 144.08 159.458 144.1 159.43V159.37L144.16 159.27V159.2C144.162 159.167 144.162 159.133 144.16 159.1C144.16 159.1 144.16 159.03 144.16 158.99V158.93V158.8C144.164 158.773 144.164 158.747 144.16 158.72C144.164 158.7 144.164 158.68 144.16 158.66V158.58C144.164 158.56 144.164 158.54 144.16 158.52C144.16 158.45 144.16 158.39 144.23 158.32C144.235 158.29 144.235 158.26 144.23 158.23L144.29 158.04C144.294 158.02 144.294 158 144.29 157.98V157.98C144.29 157.98 144.29 157.98 144.29 157.93V157.81L144.35 157.57C144.344 157.547 144.344 157.523 144.35 157.5V157.5L144.41 157.2V157.04V156.99C144.415 156.897 144.415 156.803 144.41 156.71C144.405 156.663 144.405 156.617 144.41 156.57C144.41 156.49 144.41 156.41 144.41 156.33C144.415 156.267 144.415 156.203 144.41 156.14V156.08C144.415 156.013 144.415 155.947 144.41 155.88C145.55 155.51 145.57 155.43 145.57 155.33ZM122.75 148.82C122.75 145.15 124.75 143.19 127.54 143.67C128.54 144.02 129.29 144.29 129.89 144.55C131.967 145.886 133.7 147.692 134.951 149.822C136.202 151.952 136.934 154.345 137.09 156.81C137.09 161.4 133.98 163.33 130.02 161.12C127.922 159.79 126.17 157.982 124.906 155.844C123.642 153.706 122.903 151.299 122.75 148.82V148.82Z" fill="#C1C1C1"/>
<path d="M218.53 148C218.526 148.023 218.526 148.047 218.53 148.07C218.453 148.286 218.349 148.491 218.22 148.68L218.15 148.78C217.999 148.989 217.824 149.18 217.63 149.35C217.488 149.47 217.337 149.581 217.18 149.68C217.053 149.785 216.919 149.881 216.78 149.97C216.02 150.41 215.2 150.81 214.37 151.19L213.74 151.46C212.9 151.82 212.03 152.16 211.13 152.46H210.97C210.3 152.68 209.61 152.87 208.91 153.05L208.14 153.22C207.63 153.34 207.14 153.46 206.6 153.55C206.37 153.6 206.13 153.63 205.89 153.67C205.08 153.81 204.25 153.93 203.42 154.02L202.81 154.09C201.95 154.17 201.09 154.23 200.22 154.26H199.72C199.06 154.26 198.41 154.26 197.72 154.26H196.8C196.3 154.26 195.8 154.26 195.31 154.18C194.98 154.18 194.66 154.12 194.31 154.09L192.91 153.93L191.91 153.79C191.42 153.72 190.91 153.63 190.46 153.54L189.54 153.35C188.93 153.22 188.32 153.07 187.72 152.9L187.09 152.74C186.16 152.47 185.25 152.16 184.37 151.82C183.86 151.62 183.37 151.43 182.85 151.21L107.85 122.34V127.34L182.9 156.21C183.31 156.4 183.72 156.57 184.14 156.73L184.41 156.83C185.3 157.17 186.2 157.48 187.13 157.75H187.26L187.76 157.87C188.36 158.03 188.97 158.18 189.59 158.32L189.96 158.41L190.5 158.5C190.98 158.6 191.5 158.68 191.96 158.76C192.14 158.76 192.31 158.82 192.49 158.85L192.94 158.9L194.33 159.06L194.98 159.13H195.32L196.81 159.21C197.04 159.21 197.27 159.21 197.51 159.21H197.72C198.38 159.21 199.03 159.21 199.72 159.21H200.22C201.09 159.21 201.96 159.12 202.82 159.03H203L203.4 158.97C204.23 158.88 205.05 158.77 205.87 158.63C206.01 158.63 206.16 158.63 206.3 158.57L206.58 158.51C207.1 158.41 207.58 158.3 208.12 158.18L208.89 158C209.59 157.83 210.27 157.63 210.95 157.42H211.1C212 157.13 212.87 156.79 213.71 156.42L214.33 156.14C215.155 155.781 215.959 155.377 216.74 154.93H216.82C216.95 154.85 217.03 154.77 217.15 154.69C217.306 154.585 217.456 154.471 217.6 154.35V154.35C217.746 154.219 217.88 154.075 218 153.92C218.027 153.889 218.05 153.856 218.07 153.82L218.14 153.71C218.183 153.652 218.223 153.592 218.26 153.53C218.328 153.414 218.388 153.294 218.44 153.17C218.44 153.17 218.44 153.17 218.44 153.11C218.443 153.087 218.443 153.063 218.44 153.04C218.472 152.963 218.496 152.882 218.51 152.8C218.525 152.677 218.525 152.553 218.51 152.43V152.37V147.42C218.543 147.612 218.549 147.807 218.53 148Z" fill="#D2B100"/>
<path d="M145 100.7L216.83 144.7C219.23 146.17 219.19 148.49 216.72 149.92C207.62 155.21 193.11 155.74 182.87 151.17L107.87 122.3L145 100.7Z" fill="#FFD600"/>
</g>
<defs>
<linearGradient id="paint0_linear" x1="35.63" y1="71.42" x2="48.33" y2="71.42" gradientUnits="userSpaceOnUse">
<stop stop-color="white"/>
<stop offset="0.24" stop-color="#FCFEFF"/>
<stop offset="0.41" stop-color="#F3FBFF"/>
<stop offset="0.55" stop-color="#E4F5FE"/>
<stop offset="0.68" stop-color="#CFEDFD"/>
<stop offset="0.79" stop-color="#B3E3FC"/>
<stop offset="0.91" stop-color="#91D7FA"/>
<stop offset="1" stop-color="#6ECAF9"/>
</linearGradient>
<linearGradient id="paint1_linear" x1="13.5" y1="84.38" x2="26.03" y2="84.38" gradientUnits="userSpaceOnUse">
<stop stop-color="white"/>
<stop offset="0.55" stop-color="#FDFDFF"/>
<stop offset="0.75" stop-color="#F6F8FF"/>
<stop offset="0.89" stop-color="#EBEFFE"/>
<stop offset="1" stop-color="#DBE2FD"/>
</linearGradient>
<linearGradient id="paint2_linear" x1="18.89" y1="84.38" x2="20.62" y2="84.38" gradientUnits="userSpaceOnUse">
<stop stop-color="white"/>
<stop offset="1" stop-color="#DBE2FD"/>
</linearGradient>
<linearGradient id="paint3_linear" x1="50.4" y1="84.45" x2="84.17" y2="84.45" gradientUnits="userSpaceOnUse">
<stop stop-color="#2E42EB"/>
<stop offset="0.13" stop-color="#3853EF"/>
<stop offset="0.31" stop-color="#4265F3"/>
<stop offset="0.44" stop-color="#466CF5"/>
<stop offset="0.88" stop-color="#5C90FE"/>
</linearGradient>
<linearGradient id="paint4_linear" x1="136.47" y1="69.89" x2="278.65" y2="-5.23999" gradientUnits="userSpaceOnUse">
<stop stop-color="#FF7A00"/>
<stop offset="0.604167" stop-color="#FFA24B" stop-opacity="0"/>
</linearGradient>
<linearGradient id="paint5_linear" x1="102.64" y1="80.15" x2="144.24" y2="80.15" gradientUnits="userSpaceOnUse">
<stop offset="0.12" stop-color="#5C90FE"/>
<stop offset="0.56" stop-color="#466CF5"/>
<stop offset="0.69" stop-color="#4265F3"/>
<stop offset="0.87" stop-color="#3853EF"/>
<stop offset="1" stop-color="#2E42EB"/>
</linearGradient>
<linearGradient id="paint6_linear" x1="1250.25" y1="1717.79" x2="1250.25" y2="2056.71" gradientUnits="userSpaceOnUse">
<stop stop-color="white"/>
<stop offset="1" stop-color="#DBE2FD"/>
</linearGradient>
<linearGradient id="paint7_linear" x1="1397.5" y1="1579.78" x2="1397.5" y2="1918.71" gradientUnits="userSpaceOnUse">
<stop stop-color="white"/>
<stop offset="1" stop-color="#DBE2FD"/>
</linearGradient>
<linearGradient id="paint8_linear" x1="3930.4" y1="4430.93" x2="8624.71" y2="4430.93" gradientUnits="userSpaceOnUse">
<stop stop-color="white"/>
<stop offset="1" stop-color="#DBE2FD"/>
</linearGradient>
<linearGradient id="paint9_linear" x1="2056.14" y1="2557.33" x2="2216.93" y2="2557.33" gradientUnits="userSpaceOnUse">
<stop stop-color="white"/>
<stop offset="0.24" stop-color="#FCFEFF"/>
<stop offset="0.41" stop-color="#F3FBFF"/>
<stop offset="0.55" stop-color="#E4F5FE"/>
<stop offset="0.68" stop-color="#CFEDFD"/>
<stop offset="0.79" stop-color="#B3E3FC"/>
<stop offset="0.91" stop-color="#91D7FA"/>
<stop offset="1" stop-color="#6ECAF9"/>
</linearGradient>
<linearGradient id="paint10_linear" x1="1739.55" y1="2578.23" x2="1896.8" y2="2578.23" gradientUnits="userSpaceOnUse">
<stop stop-color="white"/>
<stop offset="0.55" stop-color="#FDFDFF"/>
<stop offset="0.75" stop-color="#F6F8FF"/>
<stop offset="0.89" stop-color="#EBEFFE"/>
<stop offset="1" stop-color="#DBE2FD"/>
</linearGradient>
<linearGradient id="paint11_linear" x1="365.219" y1="484.935" x2="368.212" y2="484.935" gradientUnits="userSpaceOnUse">
<stop stop-color="white"/>
<stop offset="1" stop-color="#DBE2FD"/>
</linearGradient>
<clipPath id="clip0">
<rect width="245.19" height="163.18" fill="white"/>
</clipPath>
</defs>
</svg>
